<svg width="268.652" height="73.682" viewBox="0 0 268.652 73.682" xmlns="http://www.w3.org/2000/svg"><g id="svgGroup" stroke-linecap="round" fill-rule="evenodd" font-size="9pt" stroke="#000" stroke-width="0.25mm" fill="#000" style="stroke:#000;stroke-width:0.25mm;fill:#000"><path d="M 35.938 66.016 A 19.79 19.79 0 0 0 37.889 64.026 A 10.152 10.152 0 0 0 38.403 66.456 A 9.848 9.848 0 0 0 38.57 66.901 A 8.468 8.468 0 0 0 39.99 69.263 Q 41.016 70.459 42.481 71.119 Q 43.945 71.778 45.752 71.778 A 6.951 6.951 0 0 0 48.495 71.194 A 9.832 9.832 0 0 0 50.342 70.142 A 12.903 12.903 0 0 0 52.354 68.356 A 15.95 15.95 0 0 0 54.297 65.723 A 12.381 12.381 0 0 0 54.549 66.433 A 10.286 10.286 0 0 0 57.105 70.264 A 6.5 6.5 0 0 0 59.334 71.647 A 7.323 7.323 0 0 0 61.865 72.071 A 8.057 8.057 0 0 0 65.674 71.119 A 15.449 15.449 0 0 0 69.043 68.702 A 22.31 22.31 0 0 0 71.875 65.479 A 50.273 50.273 0 0 0 72.854 64.075 A 40.346 40.346 0 0 0 73.431 63.194 A 16.899 16.899 0 0 0 73.975 65.528 Q 74.756 68.018 76.27 69.849 Q 77.783 71.68 79.932 72.681 A 10.286 10.286 0 0 0 82.239 73.432 A 13.18 13.18 0 0 0 84.863 73.682 A 18.29 18.29 0 0 0 86.025 73.646 A 15.527 15.527 0 0 0 90.649 72.657 A 22.659 22.659 0 0 0 91.144 72.46 A 20.179 20.179 0 0 0 95.459 70.044 A 26.067 26.067 0 0 0 95.593 69.945 A 23.669 23.669 0 0 0 99.268 66.553 A 42.69 42.69 0 0 0 100.631 64.91 A 33.439 33.439 0 0 0 101.902 63.193 A 3181.804 3181.804 0 0 0 101.894 63.664 Q 101.864 65.613 101.845 67.064 A 1005.001 1005.001 0 0 0 101.831 68.116 A 1710.268 1710.268 0 0 0 101.824 68.66 Q 101.811 69.793 101.808 70.194 A 24.483 24.483 0 0 0 101.807 70.362 A 6.19 6.19 0 0 0 101.807 70.374 Q 101.81 71.829 102.49 72.437 Q 102.749 72.668 103.015 72.812 A 1.855 1.855 0 0 0 103.906 73.047 A 3.233 3.233 0 0 0 103.991 73.046 Q 104.714 73.027 105.176 72.681 A 3.065 3.065 0 0 0 105.411 72.486 A 3.358 3.358 0 0 0 106.006 71.753 A 4.579 4.579 0 0 0 106.519 70.557 A 423.85 423.85 0 0 1 106.683 69.947 A 330.459 330.459 0 0 1 106.836 69.385 A 47.641 47.641 0 0 1 107.336 67.548 A 63.066 63.066 0 0 1 107.959 65.552 Q 108.643 63.477 109.546 61.377 A 44.049 44.049 0 0 1 111.523 57.349 A 27.956 27.956 0 0 1 112.364 55.937 A 22.473 22.473 0 0 1 113.794 53.931 A 14.806 14.806 0 0 1 114.932 52.664 A 10.867 10.867 0 0 1 116.26 51.539 A 5.514 5.514 0 0 1 117.078 51.053 A 4.068 4.068 0 0 1 118.848 50.635 A 3.859 3.859 0 0 1 118.868 50.635 A 3.009 3.009 0 0 1 120.996 51.465 A 2.7 2.7 0 0 1 121.719 52.588 A 3.226 3.226 0 0 1 121.875 53.614 A 5.919 5.919 0 0 1 121.191 56.421 A 7.65 7.65 0 0 1 120.603 57.361 A 8.902 8.902 0 0 1 119.287 58.79 Q 118.066 59.864 116.382 60.718 A 19.417 19.417 0 0 1 115.298 61.226 A 22.483 22.483 0 0 1 112.695 62.159 Q 112.272 62.3 111.955 62.482 A 2.466 2.466 0 0 0 111.548 62.769 Q 111.133 63.135 110.913 63.55 A 3.481 3.481 0 0 0 110.841 63.694 Q 110.768 63.849 110.72 63.994 A 1.82 1.82 0 0 0 110.645 64.307 A 8.093 8.093 0 0 0 110.636 64.372 Q 110.596 64.668 110.596 64.844 A 5.635 5.635 0 0 0 110.719 66.016 A 6.336 6.336 0 0 0 111.401 67.798 A 8.453 8.453 0 0 0 111.962 68.67 A 9.533 9.533 0 0 0 113.599 70.386 A 9.793 9.793 0 0 0 114.843 71.257 A 11.806 11.806 0 0 0 116.919 72.217 A 11.485 11.485 0 0 0 117.776 72.484 A 12.547 12.547 0 0 0 121.045 72.901 A 14.716 14.716 0 0 0 126.489 71.851 Q 129.15 70.801 131.592 68.824 Q 134.033 66.846 136.133 64.039 Q 138.232 61.231 139.941 57.666 A 4.736 4.736 0 0 0 139.977 57.574 Q 140.082 57.297 140.118 57.087 A 1.198 1.198 0 0 0 140.137 56.885 A 1.752 1.752 0 0 0 139.97 56.137 A 2.213 2.213 0 0 0 139.624 55.616 A 1.655 1.655 0 0 0 138.936 55.138 A 1.906 1.906 0 0 0 138.281 55.03 A 1.836 1.836 0 0 0 137.305 55.298 A 1.619 1.619 0 0 0 136.893 55.659 A 2.021 2.021 0 0 0 136.621 56.104 A 46.984 46.984 0 0 1 135.355 58.61 Q 134.534 60.115 133.695 61.349 A 21.03 21.03 0 0 1 131.885 63.672 A 30.203 30.203 0 0 1 130.738 64.869 Q 129.855 65.739 129.009 66.41 A 14.059 14.059 0 0 1 127.271 67.603 Q 125.913 68.381 124.755 68.759 A 7.391 7.391 0 0 1 123.438 69.068 A 46.93 46.93 0 0 1 122.677 69.163 Q 121.955 69.246 121.469 69.274 A 7.566 7.566 0 0 1 121.045 69.288 Q 118.652 69.288 116.748 68.189 A 7.822 7.822 0 0 1 116.386 67.967 A 6.283 6.283 0 0 1 114.014 65.235 Q 116.211 64.551 118.286 63.477 A 19.801 19.801 0 0 0 118.923 63.132 A 17.387 17.387 0 0 0 121.973 60.962 A 11.845 11.845 0 0 0 124.561 57.691 A 8.194 8.194 0 0 0 124.941 56.872 A 8.577 8.577 0 0 0 125.537 53.663 A 7.675 7.675 0 0 0 125.533 53.399 A 6.666 6.666 0 0 0 125.024 51.026 Q 124.512 49.805 123.608 48.902 Q 122.705 47.999 121.484 47.486 A 6.388 6.388 0 0 0 120.941 47.286 A 6.887 6.887 0 0 0 118.848 46.973 A 7.647 7.647 0 0 0 114.233 48.487 Q 112.158 50 110.498 52.344 Q 108.838 54.688 107.617 57.447 A 57.141 57.141 0 0 0 106.731 59.561 A 45.998 45.998 0 0 0 105.615 62.696 A 1495.781 1495.781 0 0 0 105.629 61.77 Q 105.65 60.353 105.67 58.761 A 2654.135 2654.135 0 0 0 105.713 55.274 A 1974.375 1974.375 0 0 1 105.768 50.965 A 2292.104 2292.104 0 0 1 105.835 46.436 Q 105.908 41.797 105.981 36.915 Q 106.055 32.032 106.128 27.417 A 4809.484 4809.484 0 0 1 106.201 22.931 A 4031.316 4031.316 0 0 1 106.274 18.702 Q 106.32 16.138 106.356 13.975 A 2788.211 2788.211 0 0 0 106.397 11.524 A 3515.512 3515.512 0 0 0 106.418 10.15 Q 106.44 8.715 106.456 7.61 A 1094.666 1094.666 0 0 0 106.47 6.617 A 4289.015 4289.015 0 0 0 106.476 6.182 Q 106.492 4.975 106.494 4.739 A 6.824 6.824 0 0 0 106.494 4.688 Q 106.494 3.858 105.957 3.345 A 1.814 1.814 0 0 0 105.369 2.965 A 1.966 1.966 0 0 0 104.639 2.833 A 1.752 1.752 0 0 0 103.891 2.999 A 2.213 2.213 0 0 0 103.369 3.345 A 1.715 1.715 0 0 0 102.949 3.885 A 1.698 1.698 0 0 0 102.783 4.639 A 27.233 27.233 0 0 1 102.783 4.786 Q 102.78 5.322 102.759 7.056 A 872.727 872.727 0 0 1 102.753 7.497 Q 102.729 9.42 102.686 12.281 A 2121.008 2121.008 0 0 1 102.671 13.199 Q 102.649 14.603 102.623 16.172 A 3683.104 3683.104 0 0 1 102.564 19.605 Q 102.49 23.731 102.441 28.321 Q 102.393 32.911 102.295 37.745 A 1071.416 1071.416 0 0 0 102.283 38.348 A 984.393 984.393 0 0 0 102.148 47.144 A 1296.865 1296.865 0 0 1 102.094 51.587 A 1094.713 1094.713 0 0 1 102.03 55.558 A 1.496 1.496 0 0 0 101.709 56.055 Q 101.611 56.348 101.05 57.496 A 16.989 16.989 0 0 1 100.756 58.067 Q 100.499 58.546 100.176 59.083 A 36.255 36.255 0 0 1 99.487 60.181 A 32.633 32.633 0 0 1 98.383 61.768 A 43.954 43.954 0 0 1 97.07 63.453 A 19.662 19.662 0 0 1 96.981 63.561 A 21.073 21.073 0 0 1 93.799 66.651 Q 91.943 68.116 89.697 69.068 A 11.614 11.614 0 0 1 88.403 69.528 A 12.804 12.804 0 0 1 84.814 70.02 A 8.694 8.694 0 0 1 83.298 69.893 A 6.423 6.423 0 0 1 81.274 69.19 Q 79.785 68.36 78.809 66.968 Q 77.832 65.577 77.344 63.77 A 13.524 13.524 0 0 1 77.203 63.201 A 14.764 14.764 0 0 1 76.856 59.961 A 15.402 15.402 0 0 1 76.864 59.44 A 13.647 13.647 0 0 1 77.417 55.982 A 14.052 14.052 0 0 1 77.934 54.535 A 10.987 10.987 0 0 1 78.906 52.71 A 9.129 9.129 0 0 1 79.39 52.05 A 7.532 7.532 0 0 1 81.079 50.489 Q 82.324 49.659 83.691 49.659 A 4.562 4.562 0 0 1 84.393 49.711 A 3.33 3.33 0 0 1 86.108 50.489 A 3.345 3.345 0 0 1 86.613 51.03 A 2.182 2.182 0 0 1 87.061 52.344 Q 87.061 52.802 86.994 53.155 A 2.415 2.415 0 0 1 86.89 53.541 Q 86.799 53.787 86.694 53.992 A 2.865 2.865 0 0 1 86.499 54.322 Q 86.279 54.639 86.108 54.932 A 1.209 1.209 0 0 0 85.979 55.255 A 1.51 1.51 0 0 0 85.938 55.616 A 2.363 2.363 0 0 0 85.938 55.64 A 1.833 1.833 0 0 0 86.45 56.934 A 1.666 1.666 0 0 0 87.171 57.383 A 2.085 2.085 0 0 0 87.793 57.471 Q 88.33 57.471 88.867 57.056 A 3.384 3.384 0 0 0 89.403 56.532 A 4.535 4.535 0 0 0 89.819 55.933 A 6.274 6.274 0 0 0 90.165 55.246 A 8.017 8.017 0 0 0 90.503 54.297 Q 90.772 53.37 90.772 52.295 Q 90.772 51.172 90.259 50.049 A 7.234 7.234 0 0 0 88.843 47.999 A 6.206 6.206 0 0 0 88.107 47.354 A 7.166 7.166 0 0 0 86.621 46.509 Q 85.303 45.948 83.691 45.948 Q 81.543 45.948 79.639 47.046 Q 77.734 48.145 76.294 50.049 A 13.545 13.545 0 0 0 75.224 51.705 A 16.193 16.193 0 0 0 74.023 54.517 A 16.366 16.366 0 0 0 73.792 55.3 A 1.84 1.84 0 0 0 73.755 55.323 A 1.794 1.794 0 0 0 73.423 55.592 A 1.967 1.967 0 0 0 73.047 56.153 A 83.015 83.015 0 0 1 72.753 56.766 Q 72.597 57.089 72.421 57.446 A 157.138 157.138 0 0 1 71.973 58.35 A 32.944 32.944 0 0 1 71.469 59.316 A 39.433 39.433 0 0 1 70.508 60.987 A 34.46 34.46 0 0 1 68.677 63.697 A 21.288 21.288 0 0 1 68.17 64.35 A 18.337 18.337 0 0 1 66.577 66.089 A 12.624 12.624 0 0 1 65.746 66.818 A 10.066 10.066 0 0 1 64.331 67.774 A 5.649 5.649 0 0 1 63.81 68.029 A 4.554 4.554 0 0 1 62.012 68.409 A 4.803 4.803 0 0 1 61.414 68.373 A 3.351 3.351 0 0 1 59.18 67.188 A 7.602 7.602 0 0 1 58.582 66.372 A 8.522 8.522 0 0 1 57.642 64.307 A 16.008 16.008 0 0 1 56.982 60.962 A 153.047 153.047 0 0 1 56.919 60.214 Q 56.825 59.06 56.787 58.35 A 1.851 1.851 0 0 0 56.622 57.703 A 2.107 2.107 0 0 0 56.226 57.129 A 2.121 2.121 0 0 0 56.128 57.033 A 1.575 1.575 0 0 0 55.029 56.592 Q 54.297 56.592 53.76 57.056 Q 53.223 57.52 53.125 58.204 A 21.42 21.42 0 0 1 53.08 58.518 Q 52.73 60.859 51.929 62.598 A 18.414 18.414 0 0 1 51.819 62.831 Q 51.008 64.531 50.024 65.674 A 10.503 10.503 0 0 1 49.962 65.746 Q 49.496 66.278 49.01 66.686 A 6.296 6.296 0 0 1 47.827 67.481 Q 46.68 68.067 45.801 68.067 A 5.935 5.935 0 0 1 45.659 68.065 Q 45.168 68.053 44.742 67.96 A 3.378 3.378 0 0 1 43.75 67.579 Q 42.92 67.09 42.432 66.309 A 5.006 5.006 0 0 1 42.398 66.254 A 5.232 5.232 0 0 1 41.748 64.576 A 9.337 9.337 0 0 1 41.553 62.696 A 18.4 18.4 0 0 1 41.554 62.51 Q 41.567 61.206 41.765 60.06 A 10.869 10.869 0 0 1 42.505 57.544 A 13.977 13.977 0 0 1 43.302 55.988 A 10.848 10.848 0 0 1 44.873 53.931 A 10.551 10.551 0 0 1 45.414 53.418 A 8.869 8.869 0 0 1 47.998 51.807 Q 49.707 51.124 51.221 51.124 A 9.53 9.53 0 0 1 51.253 51.124 Q 51.748 51.125 52.191 51.178 A 5.976 5.976 0 0 1 53.052 51.343 A 10.598 10.598 0 0 1 53.164 51.375 Q 53.899 51.584 54.443 51.856 Q 54.814 52.041 55.087 52.217 A 3.702 3.702 0 0 1 55.371 52.417 A 18.894 18.894 0 0 1 55.488 52.51 Q 55.731 52.704 55.811 52.784 A 1.819 1.819 0 0 0 56.353 53.162 A 1.872 1.872 0 0 0 57.129 53.321 Q 57.861 53.321 58.398 52.759 A 2.349 2.349 0 0 0 58.434 52.722 A 1.807 1.807 0 0 0 58.936 51.465 A 1.803 1.803 0 0 0 58.734 50.645 A 2.555 2.555 0 0 0 58.398 50.147 Q 58.356 50.104 57.977 49.781 A 123.791 123.791 0 0 0 57.861 49.683 A 3.846 3.846 0 0 0 57.851 49.674 Q 57.363 49.263 56.47 48.78 A 9.375 9.375 0 0 0 56.208 48.644 Q 55.388 48.233 54.297 47.876 A 8.016 8.016 0 0 0 53.225 47.608 A 9.649 9.649 0 0 0 51.514 47.461 A 11.083 11.083 0 0 0 49.37 47.676 A 13.892 13.892 0 0 0 46.851 48.438 Q 44.434 49.415 42.432 51.368 A 14.001 14.001 0 0 0 40.815 53.259 A 16.963 16.963 0 0 0 39.641 55.176 A 1.836 1.836 0 0 0 39.404 55.298 Q 38.965 55.567 38.721 56.055 Q 38.393 56.735 37.975 57.473 A 33.446 33.446 0 0 1 37.109 58.912 A 25.302 25.302 0 0 1 34.985 61.792 A 15.932 15.932 0 0 1 34.111 62.738 A 12.893 12.893 0 0 1 32.593 64.039 A 6.511 6.511 0 0 1 32.355 64.203 Q 31.891 64.509 31.437 64.689 A 3.417 3.417 0 0 1 30.176 64.942 A 7.232 7.232 0 0 1 29.026 64.855 A 5.271 5.271 0 0 1 27.783 64.502 A 8.803 8.803 0 0 1 26.942 64.09 A 6.759 6.759 0 0 1 26.025 63.477 A 6.902 6.902 0 0 1 25.422 62.936 A 5.13 5.13 0 0 1 24.854 62.256 Q 24.551 61.819 24.364 61.498 A 4.863 4.863 0 0 1 24.219 61.231 A 19.274 19.274 0 0 0 24.365 58.838 A 17.859 17.859 0 0 0 23.877 54.688 A 13.58 13.58 0 0 0 23.628 53.781 A 11.489 11.489 0 0 0 22.363 51.026 A 8.281 8.281 0 0 0 19.8 48.438 A 6.043 6.043 0 0 0 18.036 47.683 A 7.59 7.59 0 0 0 16.162 47.461 Q 14.941 47.461 13.843 47.925 Q 12.744 48.389 11.89 49.244 A 5.827 5.827 0 0 0 11.533 49.634 A 6.28 6.28 0 0 0 10.547 51.294 A 6.343 6.343 0 0 0 10.269 52.143 A 7.196 7.196 0 0 0 10.059 53.907 A 6.024 6.024 0 0 0 10.132 54.823 A 8.075 8.075 0 0 0 10.352 55.811 A 8.123 8.123 0 0 0 11.182 57.74 A 6.026 6.026 0 0 0 11.4 58.08 A 5.097 5.097 0 0 0 12.476 59.229 A 2.755 2.755 0 0 0 14.209 59.815 A 1.772 1.772 0 0 0 14.882 59.685 A 2.045 2.045 0 0 0 15.454 59.327 A 1.563 1.563 0 0 0 15.93 58.605 A 1.977 1.977 0 0 0 16.016 58.008 Q 16.016 56.983 15.186 56.397 A 4.394 4.394 0 0 1 14.986 56.26 Q 14.7 56.052 14.49 55.823 A 2.288 2.288 0 0 1 14.063 55.176 A 3.966 3.966 0 0 1 13.978 54.963 A 3.373 3.373 0 0 1 13.77 53.809 A 1.289 1.289 0 0 1 13.77 53.763 Q 13.776 53.602 13.818 53.223 A 2.248 2.248 0 0 1 13.916 52.778 A 2.916 2.916 0 0 1 14.111 52.32 A 2.242 2.242 0 0 1 14.417 51.88 A 2.836 2.836 0 0 1 14.844 51.49 A 1.567 1.567 0 0 1 15.199 51.292 Q 15.423 51.201 15.7 51.159 A 3.425 3.425 0 0 1 16.211 51.124 A 3.835 3.835 0 0 1 16.464 51.132 A 2.989 2.989 0 0 1 18.213 51.807 A 4.98 4.98 0 0 1 18.932 52.539 A 6.135 6.135 0 0 1 19.605 53.589 A 8.301 8.301 0 0 1 20.026 54.568 A 10.213 10.213 0 0 1 20.435 56.08 Q 20.703 57.471 20.703 58.838 A 13.347 13.347 0 0 1 20.093 62.842 A 14.281 14.281 0 0 1 19.848 63.56 A 12.312 12.312 0 0 1 18.408 66.333 A 10.519 10.519 0 0 1 18.186 66.64 A 9.112 9.112 0 0 1 15.869 68.824 A 6.697 6.697 0 0 1 15.846 68.839 A 5.629 5.629 0 0 1 12.744 69.776 A 4.598 4.598 0 0 1 9.814 68.775 A 7.669 7.669 0 0 1 8.622 67.593 A 10.015 10.015 0 0 1 7.617 66.089 A 15.206 15.206 0 0 1 6.865 64.507 A 19.261 19.261 0 0 1 6.104 62.232 A 30.138 30.138 0 0 1 5.957 61.668 A 33.296 33.296 0 0 1 5.225 57.666 A 319.872 319.872 0 0 0 7.385 52.741 A 370.042 370.042 0 0 0 9.57 47.535 A 147.146 147.146 0 0 0 13.55 36.646 A 102.449 102.449 0 0 0 16.455 25.538 A 60.74 60.74 0 0 0 16.837 23.462 A 53.239 53.239 0 0 0 17.578 14.747 A 39.349 39.349 0 0 0 17.485 11.987 A 30.754 30.754 0 0 0 17.09 8.741 A 24.821 24.821 0 0 0 16.988 8.204 Q 16.507 5.814 15.649 4.078 A 10.127 10.127 0 0 0 14.732 2.554 A 7.367 7.367 0 0 0 13.306 1.075 A 5.091 5.091 0 0 0 10.107 0 A 5.386 5.386 0 0 0 9.151 0.087 A 6.456 6.456 0 0 0 7.813 0.489 Q 7.071 0.798 6.349 1.449 A 8.598 8.598 0 0 0 5.518 2.32 Q 4.395 3.663 3.394 6.08 A 21.467 21.467 0 0 0 2.82 7.647 Q 2.168 9.651 1.636 12.378 A 56.98 56.98 0 0 0 1.298 14.289 Q 0.776 17.559 0.439 21.802 Q 0.165 25.266 0.062 29.521 A 223.262 223.262 0 0 0 0 34.913 A 347.766 347.766 0 0 0 0.024 38.978 A 407.426 407.426 0 0 0 0.098 43.262 Q 0.195 47.657 0.61 51.954 A 90.588 90.588 0 0 0 0.779 53.551 A 80.238 80.238 0 0 0 1.807 60.157 A 35.012 35.012 0 0 0 2.673 63.61 A 25.92 25.92 0 0 0 3.98 67.017 A 16.121 16.121 0 0 0 5.227 69.22 A 12.178 12.178 0 0 0 7.471 71.729 A 7.314 7.314 0 0 0 9.81 73.054 A 8.39 8.39 0 0 0 12.549 73.487 A 8.778 8.778 0 0 0 15.698 72.901 A 11.448 11.448 0 0 0 18.604 71.265 A 14.267 14.267 0 0 0 21.094 68.799 A 15.124 15.124 0 0 0 22.998 65.674 Q 23.599 66.275 24.382 66.813 A 13.673 13.673 0 0 0 25.879 67.701 Q 26.923 68.237 28.242 68.455 A 11.875 11.875 0 0 0 30.176 68.604 A 6.692 6.692 0 0 0 33.203 67.872 A 12.665 12.665 0 0 0 35.938 66.016 Z M 164.453 65.87 A 7.594 7.594 0 0 0 167.09 68.14 Q 168.579 68.93 170.694 68.99 A 12.41 12.41 0 0 0 171.045 68.995 A 8.592 8.592 0 0 0 174.387 68.349 A 8.253 8.253 0 0 0 175.391 67.847 A 14.061 14.061 0 0 0 178.443 65.407 A 16.247 16.247 0 0 0 178.955 64.844 A 23.85 23.85 0 0 0 181.595 61.12 A 26.568 26.568 0 0 0 181.836 60.694 A 60.317 60.317 0 0 0 184.011 56.37 A 2.484 2.484 0 0 1 184.082 56.153 A 62.985 62.985 0 0 1 185.363 53.294 Q 186.852 50.196 188.208 48.462 A 10.22 10.22 0 0 1 189.201 47.355 Q 190.628 45.997 192.041 45.997 A 3.74 3.74 0 0 1 192.958 46.104 A 2.882 2.882 0 0 1 193.945 46.558 A 3.938 3.938 0 0 1 195.085 47.849 A 4.671 4.671 0 0 1 195.19 48.047 A 7.701 7.701 0 0 1 195.749 49.549 A 9.025 9.025 0 0 1 195.874 50.098 Q 196.094 51.221 196.094 52.393 Q 196.094 53.256 195.976 55.06 A 118.802 118.802 0 0 1 195.972 55.127 A 138.904 138.904 0 0 1 195.831 57.05 A 170.62 170.62 0 0 1 195.654 59.107 A 404.549 404.549 0 0 0 195.288 63.331 A 251.754 251.754 0 0 1 195.204 64.338 Q 195.083 65.761 194.974 66.812 A 85.426 85.426 0 0 1 194.971 66.846 A 92.616 92.616 0 0 1 195.813 65.156 A 124.703 124.703 0 0 1 196.777 63.306 A 96.816 96.816 0 0 1 198.975 59.4 Q 200.147 57.422 201.44 55.469 A 49.41 49.41 0 0 1 204.15 51.758 A 13.101 13.101 0 0 1 205.216 50.61 Q 205.8 50.056 206.389 49.662 A 6.764 6.764 0 0 1 207.007 49.292 A 7.456 7.456 0 0 1 208.149 48.802 Q 208.963 48.536 209.717 48.536 A 5.477 5.477 0 0 1 211.241 48.735 A 3.895 3.895 0 0 1 213.477 50.391 A 7.198 7.198 0 0 1 214.496 52.904 A 10.163 10.163 0 0 1 214.697 54.981 A 13.825 13.825 0 0 1 214.687 55.495 Q 214.67 55.954 214.624 56.519 A 183.804 183.804 0 0 0 214.551 57.453 A 222.015 222.015 0 0 0 214.478 58.448 Q 214.404 59.473 214.331 60.523 A 30.58 30.58 0 0 0 214.268 61.788 A 25.291 25.291 0 0 0 214.258 62.5 A 20.51 20.51 0 0 0 214.327 64.203 A 18.19 18.19 0 0 0 214.38 64.747 A 8.039 8.039 0 0 0 214.543 65.695 Q 214.66 66.191 214.838 66.613 A 4.959 4.959 0 0 0 214.844 66.626 A 3.23 3.23 0 0 0 215.305 67.405 A 2.752 2.752 0 0 0 215.82 67.896 A 2.281 2.281 0 0 0 216.605 68.258 Q 216.926 68.341 217.303 68.356 A 4.312 4.312 0 0 0 217.481 68.36 A 5.055 5.055 0 0 0 219.816 67.77 A 7.27 7.27 0 0 0 221.094 66.919 A 19.257 19.257 0 0 0 223.767 64.231 A 22.122 22.122 0 0 0 224.341 63.501 A 31.435 31.435 0 0 0 226.719 59.857 A 28.781 28.781 0 0 0 226.929 59.473 A 70.342 70.342 0 0 0 227.561 58.268 Q 228.153 57.108 228.514 56.27 A 18.709 18.709 0 0 0 228.564 56.153 A 1.967 1.967 0 0 1 228.941 55.592 A 1.794 1.794 0 0 1 229.273 55.323 A 1.84 1.84 0 0 1 229.595 55.157 A 17.485 17.485 0 0 1 230.638 53.416 A 14.927 14.927 0 0 1 231.934 51.783 Q 233.789 49.756 236.06 48.633 Q 238.33 47.51 240.576 47.51 A 1.777 1.777 0 0 1 241.846 48.023 Q 242.383 48.536 242.383 49.317 Q 242.383 50 241.943 50.538 A 1.74 1.74 0 0 1 240.84 51.162 A 2.252 2.252 0 0 1 240.772 51.172 A 10.034 10.034 0 0 0 239.16 51.531 A 13.706 13.706 0 0 0 237.647 52.1 Q 235.986 52.833 234.595 54.224 Q 233.203 55.616 232.3 57.764 A 10.977 10.977 0 0 0 231.622 60.12 Q 231.397 61.402 231.397 62.891 A 9.688 9.688 0 0 0 231.494 64.312 Q 231.609 65.081 231.856 65.707 A 4.435 4.435 0 0 0 232.398 66.7 A 3.254 3.254 0 0 0 234.778 68.039 A 4.807 4.807 0 0 0 235.303 68.067 A 3.347 3.347 0 0 0 236.16 67.95 Q 236.527 67.853 236.912 67.676 A 5.599 5.599 0 0 0 236.963 67.652 A 3.59 3.59 0 0 0 237.582 67.271 Q 238.186 66.817 238.843 66.016 Q 239.822 64.822 240.987 62.648 A 41.335 41.335 0 0 0 241.04 62.549 Q 241.844 61.04 242.769 58.892 A 93.728 93.728 0 0 0 243.701 56.641 A 116.877 116.877 0 0 1 243.003 52.629 Q 242.572 49.888 242.188 46.729 A 89.606 89.606 0 0 1 241.675 40.784 A 121.604 121.604 0 0 1 241.504 34.18 A 103.599 103.599 0 0 1 241.614 29.488 A 117.921 117.921 0 0 1 241.699 27.857 A 81.528 81.528 0 0 1 242.334 21.412 A 55.015 55.015 0 0 1 243.158 16.866 A 48.578 48.578 0 0 1 243.506 15.43 Q 244.238 12.598 245.288 10.45 A 13.235 13.235 0 0 1 246.267 8.756 Q 246.952 7.761 247.754 7.056 A 4.745 4.745 0 0 1 250.977 5.811 Q 252.588 5.811 253.711 6.69 Q 254.834 7.569 255.542 9.131 Q 256.18 10.538 256.52 12.46 A 20.713 20.713 0 0 1 256.592 12.891 A 28.209 28.209 0 0 1 256.868 15.502 A 36.435 36.435 0 0 1 256.934 17.725 A 66.558 66.558 0 0 1 255.957 29.053 A 111.763 111.763 0 0 1 253.893 38.591 A 101.126 101.126 0 0 1 253.54 39.893 A 136.327 136.327 0 0 1 251.697 45.984 A 110.758 110.758 0 0 1 250.488 49.463 A 258.659 258.659 0 0 1 249.321 52.588 Q 248.383 55.048 247.559 57.032 A 45.721 45.721 0 0 0 248.531 60.865 Q 250.363 66.871 253.118 68.033 A 3.502 3.502 0 0 0 254.492 68.311 A 4.92 4.92 0 0 0 256.892 67.671 A 6.732 6.732 0 0 0 257.861 67.017 A 16.04 16.04 0 0 0 259.95 64.987 A 19.453 19.453 0 0 0 260.864 63.843 A 28.473 28.473 0 0 0 263.33 59.864 A 91.815 91.815 0 0 0 264.081 58.365 Q 264.443 57.623 264.746 56.964 A 46.486 46.486 0 0 0 265.088 56.202 Q 265.576 55.03 266.797 55.03 Q 267.578 55.03 268.115 55.616 A 2.235 2.235 0 0 1 268.461 56.103 A 1.691 1.691 0 0 1 268.652 56.885 A 1.764 1.764 0 0 1 268.62 57.23 A 1.338 1.338 0 0 1 268.506 57.569 A 26.094 26.094 0 0 1 268.315 58.019 Q 268.098 58.519 267.796 59.169 A 87.757 87.757 0 0 1 267.505 59.791 A 30.243 30.243 0 0 1 266.773 61.231 A 39.844 39.844 0 0 1 265.894 62.769 A 50.537 50.537 0 0 1 264.342 65.191 A 58.12 58.12 0 0 1 263.77 66.016 Q 262.598 67.676 261.182 68.995 A 14.774 14.774 0 0 1 258.768 70.831 A 13.433 13.433 0 0 1 258.179 71.167 A 6.956 6.956 0 0 1 254.834 72.022 Q 251.563 72.022 249.219 69.751 A 10.849 10.849 0 0 1 247.682 67.841 Q 246.288 65.685 245.166 62.256 A 40.536 40.536 0 0 1 243.715 65.07 Q 242.213 67.704 240.691 69.229 A 11.126 11.126 0 0 1 240.43 69.483 Q 238.037 71.729 235.254 71.729 Q 233.789 71.729 232.422 71.265 A 5.88 5.88 0 0 1 230.029 69.727 A 7.093 7.093 0 0 1 228.999 68.325 A 9.576 9.576 0 0 1 228.369 66.968 A 9.079 9.079 0 0 1 227.935 65.349 A 13.274 13.274 0 0 1 227.854 64.819 A 59.404 59.404 0 0 1 227.441 65.406 A 22.481 22.481 0 0 1 224.634 68.653 Q 223.096 70.118 221.314 71.094 A 7.666 7.666 0 0 1 217.578 72.071 A 9.233 9.233 0 0 1 216.106 71.96 Q 215.317 71.833 214.672 71.558 A 4.755 4.755 0 0 1 214.014 71.216 A 6.178 6.178 0 0 1 211.865 68.97 A 9.084 9.084 0 0 1 210.87 66.207 A 10.359 10.359 0 0 1 210.815 65.894 Q 210.547 64.209 210.547 62.5 A 17.57 17.57 0 0 1 210.563 61.771 Q 210.579 61.388 210.611 60.963 A 29.429 29.429 0 0 1 210.62 60.84 A 47.176 47.176 0 0 1 210.744 59.519 A 55.079 55.079 0 0 1 210.815 58.887 A 43.66 43.66 0 0 0 211.011 56.836 Q 211.084 55.811 211.084 54.883 A 7.859 7.859 0 0 0 211.055 54.185 Q 210.966 53.185 210.596 52.759 Q 210.204 52.308 209.875 52.22 A 0.604 0.604 0 0 0 209.717 52.198 A 1.68 1.68 0 0 0 209.113 52.32 Q 208.622 52.509 208.06 52.991 A 6.58 6.58 0 0 0 207.935 53.101 A 12.724 12.724 0 0 0 207.073 53.963 Q 206.658 54.416 206.229 54.958 A 24.016 24.016 0 0 0 205.835 55.469 A 42.932 42.932 0 0 0 204.584 57.233 A 54.992 54.992 0 0 0 203.589 58.765 A 78.485 78.485 0 0 0 201.44 62.403 A 173.607 173.607 0 0 0 200.476 64.167 A 146.644 146.644 0 0 0 199.585 65.845 Q 198.731 67.481 198.242 68.555 Q 197.404 70.315 196.566 71.086 A 3.084 3.084 0 0 1 196.289 71.314 A 4.01 4.01 0 0 1 195.433 71.795 A 3.049 3.049 0 0 1 194.287 72.022 A 3.803 3.803 0 0 1 193.285 71.897 A 2.802 2.802 0 0 1 192.017 71.167 A 2.784 2.784 0 0 1 191.303 69.903 Q 191.162 69.385 191.162 68.75 A 4.221 4.221 0 0 1 191.167 68.569 Q 191.184 68.19 191.26 67.408 A 234.248 234.248 0 0 1 191.34 66.602 Q 191.376 66.243 191.417 65.847 A 446.074 446.074 0 0 1 191.504 65.015 Q 191.65 63.624 191.797 62.012 A 2315.694 2315.694 0 0 1 192.09 58.814 A 160.53 160.53 0 0 0 192.224 57.282 A 128.07 128.07 0 0 0 192.334 55.86 Q 192.432 54.493 192.432 53.565 A 27.686 27.686 0 0 0 192.367 51.646 A 24.573 24.573 0 0 0 192.334 51.221 A 7.299 7.299 0 0 0 192.284 50.787 Q 192.175 50.047 191.943 49.854 A 0.745 0.745 0 0 0 191.723 49.988 Q 191.27 50.356 190.41 51.641 A 28.325 28.325 0 0 0 190.381 51.685 A 14.065 14.065 0 0 0 189.78 52.688 Q 188.818 54.432 187.5 57.618 A 1.821 1.821 0 0 1 187.347 57.897 A 52.626 52.626 0 0 1 185.063 62.336 Q 182.714 66.381 180.103 68.848 A 14.632 14.632 0 0 1 176.141 71.568 A 12.603 12.603 0 0 1 171.094 72.706 Q 167.871 72.706 165.527 71.46 A 11.918 11.918 0 0 1 162.372 69.068 A 11.164 11.164 0 0 1 161.67 68.238 A 13.583 13.583 0 0 1 159.424 63.77 A 17.575 17.575 0 0 1 158.691 58.79 Q 158.691 56.299 159.302 54.2 A 12.521 12.521 0 0 1 160.216 51.896 A 10.485 10.485 0 0 1 161.06 50.538 A 8.683 8.683 0 0 1 163.028 48.578 A 8.071 8.071 0 0 1 163.794 48.096 Q 165.381 47.217 167.285 47.217 A 5.638 5.638 0 0 1 169.404 47.639 A 6.452 6.452 0 0 1 169.507 47.681 A 6.375 6.375 0 0 1 171.484 49 A 6.376 6.376 0 0 1 172.724 50.701 A 7.471 7.471 0 0 1 172.9 51.075 A 6.262 6.262 0 0 1 173.362 52.734 A 8.079 8.079 0 0 1 173.438 53.858 A 10.394 10.394 0 0 1 172.923 57.146 A 9.795 9.795 0 0 1 172.754 57.618 Q 172.07 59.375 170.874 60.889 A 15.64 15.64 0 0 1 168.624 63.188 A 17.839 17.839 0 0 1 168.018 63.672 A 20.971 20.971 0 0 1 164.453 65.87 Z M 4.297 51.416 Q 5.957 47.315 7.666 42.798 A 124.508 124.508 0 0 0 10.742 33.594 A 95.288 95.288 0 0 0 12.988 24.122 A 52.091 52.091 0 0 0 13.867 14.698 A 40.312 40.312 0 0 0 13.772 11.98 A 46.596 46.596 0 0 0 13.696 11.011 A 22.345 22.345 0 0 0 13.419 8.942 A 17.892 17.892 0 0 0 13.086 7.471 Q 12.678 5.977 11.998 4.944 A 6.203 6.203 0 0 0 11.89 4.786 A 2.864 2.864 0 0 0 11.32 4.174 A 2.142 2.142 0 0 0 9.961 3.711 A 0.811 0.811 0 0 0 9.695 3.761 Q 9.455 3.845 9.154 4.07 A 4.324 4.324 0 0 0 8.96 4.224 A 3.191 3.191 0 0 0 8.571 4.621 Q 8.202 5.062 7.808 5.77 A 13.193 13.193 0 0 0 7.666 6.031 A 12.03 12.03 0 0 0 7.239 6.937 Q 6.8 7.969 6.361 9.412 A 39.04 39.04 0 0 0 6.299 9.62 Q 5.832 11.188 5.421 13.339 A 69.015 69.015 0 0 0 5.054 15.455 Q 4.492 18.995 4.126 23.975 A 121.818 121.818 0 0 0 3.903 27.958 Q 3.76 31.482 3.76 35.694 A 216.943 216.943 0 0 0 3.809 40.259 A 345.043 345.043 0 0 0 3.864 42.524 A 297.368 297.368 0 0 0 3.931 44.678 A 214.603 214.603 0 0 0 4.01 46.692 A 164.693 164.693 0 0 0 4.102 48.536 A 153.255 153.255 0 0 0 4.15 49.375 Q 4.213 50.406 4.276 51.173 A 50.434 50.434 0 0 0 4.297 51.416 Z M 253.272 17.676 A 45.77 45.77 0 0 0 253.253 16.407 A 57.289 57.289 0 0 0 253.198 15.04 A 17.583 17.583 0 0 0 253.005 13.173 A 14.989 14.989 0 0 0 252.856 12.378 Q 252.643 11.389 252.322 10.661 A 5.617 5.617 0 0 0 252.148 10.303 Q 251.86 9.758 251.445 9.571 A 1.126 1.126 0 0 0 250.977 9.473 A 1.565 1.565 0 0 0 250.04 9.808 Q 249.497 10.206 248.992 11.081 A 8.885 8.885 0 0 0 248.706 11.622 A 17.655 17.655 0 0 0 247.96 13.411 Q 247.625 14.346 247.324 15.447 A 39.785 39.785 0 0 0 246.875 17.261 A 59.313 59.313 0 0 0 246.173 20.984 Q 245.867 22.931 245.637 25.102 A 96.236 96.236 0 0 0 245.63 25.171 Q 245.166 29.59 245.166 34.083 A 108.335 108.335 0 0 0 245.508 42.676 A 186.394 186.394 0 0 0 245.85 46.501 Q 246.056 48.552 246.289 50.342 A 159.473 159.473 0 0 0 248.975 42.603 A 101.165 101.165 0 0 0 251.196 34.473 Q 252.148 30.323 252.71 26.099 Q 253.272 21.875 253.272 17.676 Z M 162.988 62.696 A 11.906 11.906 0 0 0 165.747 61.084 A 11.813 11.813 0 0 0 167.469 59.439 A 10.63 10.63 0 0 0 167.871 58.936 Q 168.75 57.764 169.238 56.47 A 7.349 7.349 0 0 0 169.727 53.858 A 4.683 4.683 0 0 0 169.655 53.012 Q 169.569 52.544 169.379 52.176 A 2.264 2.264 0 0 0 168.994 51.636 A 2.582 2.582 0 0 0 168.293 51.112 A 2.226 2.226 0 0 0 167.285 50.879 A 3.956 3.956 0 0 0 166.135 51.04 A 3.29 3.29 0 0 0 165.039 51.612 A 5.337 5.337 0 0 0 163.798 53.024 A 6.453 6.453 0 0 0 163.525 53.516 A 9.388 9.388 0 0 0 162.847 55.339 A 11.22 11.22 0 0 0 162.671 56.128 A 15.558 15.558 0 0 0 162.402 58.985 A 10.156 10.156 0 0 0 162.48 60.21 A 12.195 12.195 0 0 0 162.573 60.84 A 20.101 20.101 0 0 0 162.871 62.25 A 17.746 17.746 0 0 0 162.988 62.696 Z"/></g></svg>