<svg  viewBox="0 0 372.803 124.171" xmlns="http://www.w3.org/2000/svg"><g id="svgGroup" stroke-linecap="round" fill-rule="evenodd" font-size="9pt" stroke="#000" stroke-width="0.25mm" fill="#000" style="stroke:#000;stroke-width:0.25mm;fill:#000"><path d="M 35.938 66.016 A 19.79 19.79 0 0 0 37.889 64.026 A 10.152 10.152 0 0 0 38.403 66.456 A 9.848 9.848 0 0 0 38.57 66.901 A 8.468 8.468 0 0 0 39.99 69.263 Q 41.016 70.459 42.481 71.119 Q 43.945 71.778 45.752 71.778 A 6.951 6.951 0 0 0 48.495 71.194 A 9.832 9.832 0 0 0 50.342 70.142 A 12.903 12.903 0 0 0 52.354 68.356 A 15.95 15.95 0 0 0 54.297 65.723 A 12.381 12.381 0 0 0 54.549 66.433 A 10.286 10.286 0 0 0 57.105 70.264 A 6.5 6.5 0 0 0 59.334 71.647 A 7.323 7.323 0 0 0 61.865 72.071 A 8.057 8.057 0 0 0 65.674 71.119 A 15.449 15.449 0 0 0 69.043 68.702 A 22.31 22.31 0 0 0 71.875 65.479 A 50.273 50.273 0 0 0 72.854 64.075 A 40.346 40.346 0 0 0 73.431 63.194 A 16.899 16.899 0 0 0 73.975 65.528 Q 74.756 68.018 76.27 69.849 Q 77.783 71.68 79.932 72.681 A 10.286 10.286 0 0 0 82.239 73.432 A 13.18 13.18 0 0 0 84.863 73.682 A 18.29 18.29 0 0 0 86.025 73.646 A 15.527 15.527 0 0 0 90.649 72.657 A 22.659 22.659 0 0 0 91.144 72.46 A 20.179 20.179 0 0 0 95.459 70.044 A 26.067 26.067 0 0 0 95.593 69.945 A 23.669 23.669 0 0 0 99.268 66.553 A 42.69 42.69 0 0 0 100.631 64.91 A 33.439 33.439 0 0 0 101.902 63.193 A 3181.804 3181.804 0 0 0 101.894 63.664 Q 101.864 65.613 101.845 67.064 A 1005.001 1005.001 0 0 0 101.831 68.116 A 1710.268 1710.268 0 0 0 101.824 68.66 Q 101.811 69.793 101.808 70.194 A 24.483 24.483 0 0 0 101.807 70.362 A 6.19 6.19 0 0 0 101.807 70.374 Q 101.81 71.829 102.49 72.437 Q 102.749 72.668 103.015 72.812 A 1.855 1.855 0 0 0 103.906 73.047 A 3.233 3.233 0 0 0 103.991 73.046 Q 104.714 73.027 105.176 72.681 A 3.065 3.065 0 0 0 105.411 72.486 A 3.358 3.358 0 0 0 106.006 71.753 A 4.579 4.579 0 0 0 106.519 70.557 A 423.85 423.85 0 0 1 106.683 69.947 A 330.459 330.459 0 0 1 106.836 69.385 A 47.641 47.641 0 0 1 107.336 67.548 A 63.066 63.066 0 0 1 107.959 65.552 Q 108.643 63.477 109.546 61.377 A 44.049 44.049 0 0 1 111.523 57.349 A 27.956 27.956 0 0 1 112.364 55.937 A 22.473 22.473 0 0 1 113.794 53.931 A 14.806 14.806 0 0 1 114.932 52.664 A 10.867 10.867 0 0 1 116.26 51.539 A 5.514 5.514 0 0 1 117.078 51.053 A 4.068 4.068 0 0 1 118.848 50.635 A 3.859 3.859 0 0 1 118.868 50.635 A 3.009 3.009 0 0 1 120.996 51.465 A 2.7 2.7 0 0 1 121.719 52.588 A 3.226 3.226 0 0 1 121.875 53.614 A 5.919 5.919 0 0 1 121.191 56.421 A 7.65 7.65 0 0 1 120.603 57.361 A 8.902 8.902 0 0 1 119.287 58.79 Q 118.066 59.864 116.382 60.718 A 19.417 19.417 0 0 1 115.298 61.226 A 22.483 22.483 0 0 1 112.695 62.159 Q 112.272 62.3 111.955 62.482 A 2.466 2.466 0 0 0 111.548 62.769 Q 111.133 63.135 110.913 63.55 A 3.481 3.481 0 0 0 110.841 63.694 Q 110.768 63.849 110.72 63.994 A 1.82 1.82 0 0 0 110.645 64.307 A 8.093 8.093 0 0 0 110.636 64.372 Q 110.596 64.668 110.596 64.844 A 5.635 5.635 0 0 0 110.719 66.016 A 6.336 6.336 0 0 0 111.401 67.798 A 8.453 8.453 0 0 0 111.962 68.67 A 9.533 9.533 0 0 0 113.599 70.386 A 9.793 9.793 0 0 0 114.843 71.257 A 11.806 11.806 0 0 0 116.919 72.217 A 11.485 11.485 0 0 0 117.776 72.484 A 12.547 12.547 0 0 0 121.045 72.901 A 14.716 14.716 0 0 0 126.489 71.851 Q 129.15 70.801 131.592 68.824 Q 134.033 66.846 136.133 64.039 A 34.134 34.134 0 0 0 137.653 61.826 A 40.829 40.829 0 0 0 138.627 60.194 A 36.264 36.264 0 0 0 139.279 62.4 A 28.449 28.449 0 0 0 140.82 66.163 A 17.71 17.71 0 0 0 142.062 68.28 A 13.575 13.575 0 0 0 144.385 70.899 A 7.323 7.323 0 0 0 146.497 72.181 A 7.919 7.919 0 0 0 149.414 72.706 A 8.213 8.213 0 0 0 153.003 71.9 A 13.31 13.31 0 0 0 153.115 71.846 A 14.157 14.157 0 0 0 156.177 69.8 A 20.582 20.582 0 0 0 158.936 66.871 A 41.023 41.023 0 0 0 159.093 66.666 A 37.44 37.44 0 0 0 161.231 63.575 A 58.183 58.183 0 0 0 161.236 63.566 A 17.067 17.067 0 0 0 161.694 66.089 A 12.594 12.594 0 0 0 162.079 67.301 A 10.239 10.239 0 0 0 163.403 69.776 Q 164.551 71.338 166.211 72.266 A 7.029 7.029 0 0 0 168.013 72.964 A 8.808 8.808 0 0 0 170.068 73.194 A 7.019 7.019 0 0 0 171.238 73.096 A 7.812 7.812 0 0 0 173.438 72.364 A 13.449 13.449 0 0 0 174.284 71.902 A 15.182 15.182 0 0 0 176.611 70.191 A 22.341 22.341 0 0 0 176.894 69.936 A 24.386 24.386 0 0 0 179.468 67.164 A 45.815 45.815 0 0 0 181.32 64.677 A 10.527 10.527 0 0 0 181.738 66.456 Q 182.275 68.067 183.252 69.263 Q 184.229 70.459 185.62 71.119 A 6.6 6.6 0 0 0 186.803 71.545 A 7.667 7.667 0 0 0 188.721 71.778 A 7.749 7.749 0 0 0 190.666 71.526 A 9.553 9.553 0 0 0 192.749 70.704 A 10.944 10.944 0 0 0 196.24 67.774 A 200.986 200.986 0 0 0 196.161 70.74 A 260.47 260.47 0 0 0 196.118 73.975 A 964.38 964.38 0 0 1 196.045 80.762 Q 194.043 82.959 192.261 85.645 Q 190.479 88.331 188.965 91.26 A 69.772 69.772 0 0 0 186.206 97.291 A 71.036 71.036 0 0 0 186.052 97.678 A 64.977 64.977 0 0 0 184.082 103.418 A 54.786 54.786 0 0 0 183.669 104.921 A 48.123 48.123 0 0 0 182.739 109.302 A 38.321 38.321 0 0 0 182.422 111.722 A 29.68 29.68 0 0 0 182.275 114.6 Q 182.275 117.289 182.879 119.258 A 8.474 8.474 0 0 0 184.033 121.68 A 5.599 5.599 0 0 0 186.823 123.821 A 6.829 6.829 0 0 0 189.063 124.17 Q 191.357 124.17 193.042 123.023 A 8.766 8.766 0 0 0 194.537 121.73 A 10.916 10.916 0 0 0 195.923 119.849 A 16.915 16.915 0 0 0 197.011 117.635 A 22.733 22.733 0 0 0 197.876 115.064 A 40.651 40.651 0 0 0 198.409 112.88 A 49.852 49.852 0 0 0 199.072 109.058 A 71.258 71.258 0 0 0 199.275 107.413 A 81.838 81.838 0 0 0 199.683 102.222 A 152.431 152.431 0 0 0 199.854 94.971 A 485.808 485.808 0 0 0 199.841 91.456 A 374.22 374.22 0 0 0 199.805 88.233 A 387.641 387.641 0 0 1 199.756 82.081 Q 203.54 77.35 206.504 73.23 A 139.365 139.365 0 0 0 209.766 68.506 A 108.622 108.622 0 0 0 211.004 66.583 A 85.024 85.024 0 0 0 212.647 63.87 A 6502.397 6502.397 0 0 0 212.647 64.844 L 212.647 67.92 Q 212.647 69.629 213.452 70.826 A 3.293 3.293 0 0 0 213.468 70.849 Q 214.273 72.022 215.772 72.022 Q 216.342 72.022 217.017 71.687 A 5.564 5.564 0 0 0 217.651 71.314 Q 218.406 70.805 219.148 69.603 A 13.48 13.48 0 0 0 219.727 68.555 Q 220.129 67.75 220.697 66.628 A 824.428 824.428 0 0 1 221.094 65.845 Q 221.924 64.209 222.949 62.403 A 174.17 174.17 0 0 1 225.073 58.765 A 43.898 43.898 0 0 1 226.035 57.233 A 34.871 34.871 0 0 1 227.271 55.469 A 24.016 24.016 0 0 1 227.664 54.958 Q 228.094 54.416 228.508 53.963 A 12.724 12.724 0 0 1 229.37 53.101 A 6.58 6.58 0 0 1 229.495 52.991 Q 230.058 52.509 230.549 52.32 A 1.68 1.68 0 0 1 231.152 52.198 Q 231.689 52.198 232.105 52.735 Q 232.52 53.272 232.52 54.786 A 11.531 11.531 0 0 1 232.512 55.178 Q 232.505 55.387 232.491 55.623 A 24.409 24.409 0 0 1 232.446 56.226 A 117.663 117.663 0 0 1 232.367 57.111 A 144.013 144.013 0 0 1 232.275 58.057 A 74.548 74.548 0 0 0 232.105 60.035 A 29.23 29.23 0 0 0 232.06 60.768 A 23.977 23.977 0 0 0 232.031 61.915 A 21.987 21.987 0 0 0 232.035 62.343 A 24.199 24.199 0 0 0 232.3 65.43 A 11.869 11.869 0 0 0 232.465 66.312 A 10.006 10.006 0 0 0 233.325 68.702 A 6.595 6.595 0 0 0 235.449 71.119 Q 236.346 71.743 237.622 71.958 A 8.684 8.684 0 0 0 239.063 72.071 A 7.82 7.82 0 0 0 242.798 71.119 A 13.9 13.9 0 0 0 243.047 70.982 A 14.862 14.862 0 0 0 246.118 68.677 A 24.369 24.369 0 0 0 248.926 65.43 A 50.273 50.273 0 0 0 249.905 64.026 A 40.346 40.346 0 0 0 251.148 62.061 A 45.968 45.968 0 0 0 251.369 61.683 A 31.335 31.335 0 0 0 252.222 63.672 A 25.393 25.393 0 0 0 252.39 64.019 Q 254.221 67.725 256.787 69.825 A 9.311 9.311 0 0 0 262.842 72.022 A 7.173 7.173 0 0 0 266.455 71.045 A 14.596 14.596 0 0 0 266.774 70.858 A 15.709 15.709 0 0 0 269.653 68.604 Q 271.143 67.139 272.339 65.357 A 57.03 57.03 0 0 0 273.263 63.937 A 45.574 45.574 0 0 0 273.534 63.502 A 17.067 17.067 0 0 0 273.999 66.089 A 12.594 12.594 0 0 0 274.384 67.301 A 10.239 10.239 0 0 0 275.708 69.776 Q 276.856 71.338 278.516 72.266 A 7.029 7.029 0 0 0 280.318 72.964 A 8.808 8.808 0 0 0 282.373 73.194 A 7.019 7.019 0 0 0 283.542 73.096 A 7.812 7.812 0 0 0 285.742 72.364 A 13.449 13.449 0 0 0 286.589 71.902 A 15.182 15.182 0 0 0 288.916 70.191 A 22.341 22.341 0 0 0 289.198 69.936 A 24.386 24.386 0 0 0 291.773 67.164 A 45.815 45.815 0 0 0 294.238 63.77 Q 295.361 62.061 296.24 60.45 Q 296.79 59.443 297.224 58.626 A 120.518 120.518 0 0 0 297.657 57.806 A 1.821 1.821 0 0 0 297.735 57.66 A 1.444 1.444 0 0 0 297.81 57.483 A 86.311 86.311 0 0 1 298.581 55.682 Q 299.388 53.859 300.034 52.688 A 14.065 14.065 0 0 1 300.635 51.685 A 28.325 28.325 0 0 1 300.664 51.641 Q 301.524 50.356 301.977 49.988 A 0.745 0.745 0 0 1 302.197 49.854 Q 302.428 50.047 302.538 50.787 A 7.299 7.299 0 0 1 302.588 51.221 A 24.573 24.573 0 0 1 302.621 51.646 A 27.686 27.686 0 0 1 302.686 53.565 Q 302.686 54.493 302.588 55.86 A 128.07 128.07 0 0 1 302.478 57.282 A 160.53 160.53 0 0 1 302.344 58.814 A 2315.694 2315.694 0 0 0 302.051 62.012 Q 301.904 63.624 301.758 65.015 A 446.074 446.074 0 0 0 301.671 65.847 Q 301.63 66.243 301.594 66.602 A 234.248 234.248 0 0 0 301.514 67.408 Q 301.437 68.19 301.421 68.569 A 4.221 4.221 0 0 0 301.416 68.75 Q 301.416 69.385 301.557 69.903 A 2.784 2.784 0 0 0 302.271 71.167 A 2.802 2.802 0 0 0 303.539 71.897 A 3.803 3.803 0 0 0 304.541 72.022 A 3.049 3.049 0 0 0 305.687 71.795 A 4.01 4.01 0 0 0 306.543 71.314 A 3.084 3.084 0 0 0 306.82 71.086 Q 307.658 70.315 308.496 68.555 Q 308.984 67.481 309.839 65.845 A 146.644 146.644 0 0 1 310.73 64.167 A 173.607 173.607 0 0 1 311.694 62.403 A 78.485 78.485 0 0 1 313.843 58.765 A 54.992 54.992 0 0 1 314.837 57.233 A 42.932 42.932 0 0 1 316.089 55.469 A 24.016 24.016 0 0 1 316.483 54.958 Q 316.912 54.416 317.327 53.963 A 12.724 12.724 0 0 1 318.189 53.101 A 6.58 6.58 0 0 1 318.314 52.991 Q 318.876 52.509 319.367 52.32 A 1.68 1.68 0 0 1 319.971 52.198 A 0.604 0.604 0 0 1 320.129 52.22 Q 320.458 52.308 320.85 52.759 Q 321.22 53.185 321.309 54.185 A 7.859 7.859 0 0 1 321.338 54.883 Q 321.338 55.811 321.265 56.836 A 43.66 43.66 0 0 1 321.069 58.887 A 55.079 55.079 0 0 0 320.998 59.519 A 47.176 47.176 0 0 0 320.874 60.84 A 29.429 29.429 0 0 0 320.865 60.963 Q 320.833 61.388 320.817 61.771 A 17.57 17.57 0 0 0 320.801 62.5 Q 320.801 64.209 321.069 65.894 A 10.359 10.359 0 0 0 321.124 66.207 A 9.084 9.084 0 0 0 322.119 68.97 A 6.178 6.178 0 0 0 324.268 71.216 A 4.755 4.755 0 0 0 324.926 71.558 Q 325.571 71.833 326.36 71.96 A 9.233 9.233 0 0 0 327.832 72.071 A 7.666 7.666 0 0 0 331.567 71.094 Q 333.35 70.118 334.888 68.653 A 22.481 22.481 0 0 0 337.695 65.406 A 59.404 59.404 0 0 0 338.125 64.795 A 10.527 10.527 0 0 0 338.525 66.456 Q 339.063 68.067 340.039 69.263 Q 341.016 70.459 342.407 71.119 A 6.6 6.6 0 0 0 343.59 71.545 A 7.667 7.667 0 0 0 345.508 71.778 A 7.749 7.749 0 0 0 347.453 71.526 A 9.553 9.553 0 0 0 349.536 70.704 A 10.944 10.944 0 0 0 353.027 67.774 A 200.986 200.986 0 0 0 352.948 70.74 A 260.47 260.47 0 0 0 352.905 73.975 A 964.38 964.38 0 0 1 352.832 80.762 Q 350.83 82.959 349.048 85.645 Q 347.266 88.331 345.752 91.26 A 69.772 69.772 0 0 0 342.993 97.291 A 71.036 71.036 0 0 0 342.839 97.678 A 64.977 64.977 0 0 0 340.869 103.418 A 54.786 54.786 0 0 0 340.456 104.921 A 48.123 48.123 0 0 0 339.526 109.302 A 38.321 38.321 0 0 0 339.209 111.722 A 29.68 29.68 0 0 0 339.063 114.6 Q 339.063 117.289 339.666 119.258 A 8.474 8.474 0 0 0 340.82 121.68 A 5.599 5.599 0 0 0 343.61 123.821 A 6.829 6.829 0 0 0 345.85 124.17 Q 348.145 124.17 349.829 123.023 A 8.766 8.766 0 0 0 351.324 121.73 A 10.916 10.916 0 0 0 352.71 119.849 A 16.915 16.915 0 0 0 353.798 117.635 A 22.733 22.733 0 0 0 354.663 115.064 A 40.651 40.651 0 0 0 355.196 112.88 A 49.852 49.852 0 0 0 355.859 109.058 A 71.258 71.258 0 0 0 356.062 107.413 A 81.838 81.838 0 0 0 356.47 102.222 A 152.431 152.431 0 0 0 356.641 94.971 A 485.808 485.808 0 0 0 356.628 91.456 A 374.22 374.22 0 0 0 356.592 88.233 A 387.641 387.641 0 0 1 356.543 82.081 Q 360.327 77.35 363.291 73.23 A 139.365 139.365 0 0 0 366.553 68.506 A 108.622 108.622 0 0 0 367.791 66.583 Q 369.313 64.163 370.522 61.937 A 58.075 58.075 0 0 0 372.656 57.618 A 1.983 1.983 0 0 0 372.698 57.511 A 1.686 1.686 0 0 0 372.803 56.934 A 1.78 1.78 0 0 0 372.664 56.234 A 1.967 1.967 0 0 0 372.266 55.64 A 1.761 1.761 0 0 0 371.591 55.194 A 2.005 2.005 0 0 0 370.898 55.079 A 2.062 2.062 0 0 0 370.766 55.083 A 1.681 1.681 0 0 0 369.946 55.347 A 1.63 1.63 0 0 0 369.533 55.734 A 2.179 2.179 0 0 0 369.287 56.153 A 46.972 46.972 0 0 1 368.737 57.328 Q 366.28 62.403 361.674 69.028 A 185.208 185.208 0 0 1 356.543 76.026 A 774.352 774.352 0 0 1 356.598 72.602 A 656.771 656.771 0 0 1 356.665 69.361 Q 356.706 67.589 356.74 66.057 A 1559.941 1559.941 0 0 0 356.787 63.819 A 510.589 510.589 0 0 1 356.81 62.75 Q 356.835 61.631 356.86 60.766 A 163.146 163.146 0 0 1 356.885 59.986 Q 356.934 58.545 356.934 58.497 Q 356.934 57.764 356.47 57.178 A 1.473 1.473 0 0 0 355.747 56.675 A 1.881 1.881 0 0 0 355.176 56.592 Q 354.443 56.592 353.906 57.056 Q 353.369 57.52 353.272 58.204 Q 352.93 60.743 352.124 62.598 Q 351.734 63.497 351.281 64.247 A 9.929 9.929 0 0 1 350.244 65.674 Q 349.707 66.285 349.152 66.736 A 6.43 6.43 0 0 1 348.023 67.481 A 6.984 6.984 0 0 1 347.922 67.531 Q 347.437 67.769 346.974 67.902 A 4.086 4.086 0 0 1 345.85 68.067 A 5.244 5.244 0 0 1 344.788 67.965 A 3.31 3.31 0 0 1 342.676 66.626 Q 341.65 65.186 341.65 62.842 A 18.415 18.415 0 0 1 341.657 62.36 Q 341.731 59.544 342.676 57.496 A 13.575 13.575 0 0 1 343.551 55.883 A 10.441 10.441 0 0 1 345.215 53.858 A 11.343 11.343 0 0 1 345.889 53.275 A 9.506 9.506 0 0 1 348.486 51.783 Q 349.379 51.448 350.196 51.283 A 7.658 7.658 0 0 1 351.709 51.124 Q 352.686 51.124 353.394 51.319 Q 353.748 51.416 354.053 51.539 A 4.498 4.498 0 0 1 354.614 51.807 A 8.242 8.242 0 0 1 354.846 51.945 Q 355.027 52.056 355.179 52.164 A 3.996 3.996 0 0 1 355.444 52.369 A 20.76 20.76 0 0 0 355.586 52.488 Q 355.808 52.672 355.957 52.784 A 2.609 2.609 0 0 0 356.399 53.089 A 1.821 1.821 0 0 0 357.275 53.321 Q 358.008 53.321 358.545 52.759 A 2.349 2.349 0 0 0 358.58 52.722 A 1.807 1.807 0 0 0 359.082 51.465 A 1.824 1.824 0 0 0 358.93 50.728 A 2.108 2.108 0 0 0 358.545 50.147 Q 358.502 50.104 358.123 49.762 A 200.257 200.257 0 0 0 358.008 49.659 A 4.64 4.64 0 0 0 357.623 49.351 Q 357.209 49.051 356.616 48.731 Q 356.108 48.456 355.484 48.213 A 14.932 14.932 0 0 0 354.443 47.852 A 8.43 8.43 0 0 0 353.372 47.599 A 10.237 10.237 0 0 0 351.66 47.461 A 11.083 11.083 0 0 0 349.517 47.676 A 13.892 13.892 0 0 0 346.997 48.438 Q 344.58 49.415 342.578 51.368 A 14.001 14.001 0 0 0 340.962 53.259 A 16.963 16.963 0 0 0 339.783 55.185 A 1.84 1.84 0 0 0 339.526 55.323 A 1.794 1.794 0 0 0 339.195 55.592 A 1.967 1.967 0 0 0 338.818 56.153 A 18.709 18.709 0 0 1 338.768 56.27 Q 338.407 57.108 337.814 58.268 A 70.342 70.342 0 0 1 337.183 59.473 A 28.781 28.781 0 0 1 336.973 59.857 A 31.435 31.435 0 0 1 334.595 63.501 A 22.122 22.122 0 0 1 334.021 64.231 A 19.257 19.257 0 0 1 331.348 66.919 A 7.27 7.27 0 0 1 330.07 67.77 A 5.055 5.055 0 0 1 327.734 68.36 A 4.312 4.312 0 0 1 327.557 68.356 Q 327.18 68.341 326.859 68.258 A 2.281 2.281 0 0 1 326.074 67.896 A 2.752 2.752 0 0 1 325.559 67.405 A 3.23 3.23 0 0 1 325.098 66.626 A 4.959 4.959 0 0 1 325.092 66.613 Q 324.914 66.191 324.797 65.695 A 8.039 8.039 0 0 1 324.634 64.747 A 18.19 18.19 0 0 1 324.58 64.203 A 20.51 20.51 0 0 1 324.512 62.5 A 25.291 25.291 0 0 1 324.522 61.788 A 30.58 30.58 0 0 1 324.585 60.523 Q 324.658 59.473 324.731 58.448 A 222.015 222.015 0 0 1 324.805 57.453 A 183.804 183.804 0 0 1 324.878 56.519 Q 324.924 55.954 324.941 55.495 A 13.825 13.825 0 0 0 324.951 54.981 A 10.163 10.163 0 0 0 324.75 52.904 A 7.198 7.198 0 0 0 323.731 50.391 A 3.895 3.895 0 0 0 321.495 48.735 A 5.477 5.477 0 0 0 319.971 48.536 Q 319.217 48.536 318.403 48.802 A 7.456 7.456 0 0 0 317.261 49.292 A 6.764 6.764 0 0 0 316.643 49.662 Q 316.054 50.056 315.47 50.61 A 13.101 13.101 0 0 0 314.404 51.758 A 49.41 49.41 0 0 0 311.694 55.469 Q 310.4 57.422 309.229 59.4 A 96.816 96.816 0 0 0 307.031 63.306 A 124.703 124.703 0 0 0 306.067 65.156 A 92.616 92.616 0 0 0 305.225 66.846 A 85.426 85.426 0 0 0 305.228 66.812 Q 305.336 65.761 305.458 64.338 A 251.754 251.754 0 0 0 305.542 63.331 A 404.549 404.549 0 0 1 305.908 59.107 A 170.62 170.62 0 0 0 306.085 57.05 A 138.904 138.904 0 0 0 306.226 55.127 A 118.802 118.802 0 0 0 306.23 55.06 Q 306.348 53.256 306.348 52.393 Q 306.348 51.221 306.128 50.098 A 9.025 9.025 0 0 0 306.003 49.549 A 7.701 7.701 0 0 0 305.444 48.047 A 4.671 4.671 0 0 0 305.339 47.849 A 3.938 3.938 0 0 0 304.199 46.558 A 2.882 2.882 0 0 0 303.212 46.104 A 3.74 3.74 0 0 0 302.295 45.997 Q 300.882 45.997 299.455 47.355 A 10.22 10.22 0 0 0 298.462 48.462 Q 297.106 50.196 295.617 53.294 A 62.985 62.985 0 0 0 294.336 56.153 A 2.484 2.484 0 0 0 294.253 56.414 A 71.218 71.218 0 0 1 293.196 58.422 A 57.077 57.077 0 0 1 291.357 61.548 A 47.112 47.112 0 0 1 291.258 61.704 Q 289.746 64.07 288.257 65.772 Q 287.392 66.761 286.55 67.502 A 12.258 12.258 0 0 1 285.254 68.506 A 7.868 7.868 0 0 1 285.043 68.642 Q 284.476 68.994 283.924 69.199 A 4.304 4.304 0 0 1 282.422 69.483 A 5.017 5.017 0 0 1 281.709 69.431 A 6.132 6.132 0 0 1 280.689 69.19 A 3.105 3.105 0 0 1 280.555 69.143 Q 280.089 68.968 279.65 68.635 A 5.069 5.069 0 0 1 278.98 68.018 Q 278.47 67.462 278.077 66.622 A 9.227 9.227 0 0 1 277.661 65.552 A 8.927 8.927 0 0 1 277.369 64.343 Q 277.254 63.679 277.199 62.897 A 21.689 21.689 0 0 1 277.148 61.377 A 68.393 68.393 0 0 1 277.179 59.382 A 89.207 89.207 0 0 1 277.271 57.203 Q 277.393 54.932 277.564 52.906 A 4937.162 4937.162 0 0 0 277.666 51.694 Q 277.773 50.422 277.856 49.415 Q 277.956 48.224 277.974 47.808 A 3.592 3.592 0 0 0 277.979 47.657 A 1.914 1.914 0 0 0 277.49 46.363 A 1.932 1.932 0 0 0 277.42 46.287 A 1.54 1.54 0 0 0 276.27 45.801 A 2.399 2.399 0 0 0 275.939 45.823 A 1.725 1.725 0 0 0 274.927 46.314 Q 274.414 46.827 274.316 47.51 A 112.1 112.1 0 0 0 273.596 55.555 A 1.644 1.644 0 0 0 273.559 55.596 A 2.195 2.195 0 0 0 273.193 56.202 A 15.612 15.612 0 0 1 273.003 56.656 Q 272.661 57.438 272.118 58.486 A 58.892 58.892 0 0 1 271.606 59.449 A 32.982 32.982 0 0 1 271.468 59.702 A 35.931 35.931 0 0 1 269.067 63.453 A 22.314 22.314 0 0 1 268.332 64.408 A 19.09 19.09 0 0 1 265.942 66.871 Q 264.258 68.311 262.549 68.311 Q 261.084 68.311 259.814 67.481 Q 258.545 66.651 257.446 65.21 A 15.346 15.346 0 0 1 256.527 63.856 A 19.431 19.431 0 0 1 255.469 61.841 A 26.381 26.381 0 0 1 254.994 60.731 A 30.44 30.44 0 0 1 253.955 57.666 A 7.344 7.344 0 0 0 254.11 57.466 Q 254.588 56.824 255.136 55.825 A 29.363 29.363 0 0 0 255.713 54.712 Q 256.262 53.6 256.819 52.264 A 62.505 62.505 0 0 0 257.69 50.049 A 85.07 85.07 0 0 0 258.679 47.242 A 105.746 105.746 0 0 0 259.644 44.19 Q 260.596 41.016 261.353 37.671 Q 262.109 34.327 262.549 30.958 A 55.671 55.671 0 0 0 262.817 28.486 A 45.681 45.681 0 0 0 262.988 24.61 L 262.988 24.073 L 287.744 24.073 A 2.478 2.478 0 0 0 287.947 24.065 A 1.898 1.898 0 0 0 289.063 23.609 A 1.486 1.486 0 0 0 289.514 22.936 A 1.833 1.833 0 0 0 289.6 22.364 A 2.128 2.128 0 0 0 289.593 22.194 A 1.524 1.524 0 0 0 289.063 21.119 A 1.845 1.845 0 0 0 288.423 20.757 A 2.178 2.178 0 0 0 287.744 20.655 L 262.793 20.655 A 27.942 27.942 0 0 0 262.589 19.173 A 22.04 22.04 0 0 0 262.231 17.432 A 11.161 11.161 0 0 0 261.844 16.185 A 8.347 8.347 0 0 0 261.231 14.893 A 6.066 6.066 0 0 0 260.808 14.267 A 4.826 4.826 0 0 0 259.692 13.208 A 3.441 3.441 0 0 0 258.71 12.751 A 4.116 4.116 0 0 0 257.568 12.598 A 4.531 4.531 0 0 0 255.249 13.208 A 6.18 6.18 0 0 0 254.413 13.793 A 7.405 7.405 0 0 0 253.345 14.893 Q 252.49 15.967 251.831 17.432 A 20.044 20.044 0 0 0 251.361 18.572 A 24.26 24.26 0 0 0 250.684 20.655 L 232.324 20.655 A 2.478 2.478 0 0 0 232.121 20.663 A 1.898 1.898 0 0 0 231.006 21.119 A 1.486 1.486 0 0 0 230.554 21.792 A 1.833 1.833 0 0 0 230.469 22.364 A 2.128 2.128 0 0 0 230.475 22.534 A 1.524 1.524 0 0 0 231.006 23.609 A 1.845 1.845 0 0 0 231.645 23.971 A 2.178 2.178 0 0 0 232.324 24.073 L 249.854 24.073 Q 249.365 26.514 249.072 29.078 A 102.079 102.079 0 0 0 249.001 29.716 A 92.83 92.83 0 0 0 248.633 34.058 A 135.039 135.039 0 0 0 248.551 35.545 A 114.976 114.976 0 0 0 248.438 38.648 Q 248.389 40.821 248.389 42.432 A 76.637 76.637 0 0 0 248.576 47.876 A 60.463 60.463 0 0 0 249.365 54.297 A 51.666 51.666 0 0 0 249.491 54.969 A 43.356 43.356 0 0 0 249.835 56.6 A 53.038 53.038 0 0 1 249.699 56.88 Q 249.527 57.23 249.326 57.631 A 118.01 118.01 0 0 1 249.023 58.228 A 32.324 32.324 0 0 1 248.52 59.176 A 38.831 38.831 0 0 1 247.559 60.816 A 30.372 30.372 0 0 1 247.348 61.152 A 33.588 33.588 0 0 1 245.703 63.501 Q 244.678 64.844 243.555 65.943 A 12.824 12.824 0 0 1 242.67 66.734 A 10.101 10.101 0 0 1 241.26 67.701 A 5.699 5.699 0 0 1 240.582 68.027 A 4.458 4.458 0 0 1 238.916 68.36 Q 237.891 68.36 237.256 67.798 Q 236.621 67.237 236.304 66.333 A 7.905 7.905 0 0 1 236.035 65.369 A 10.479 10.479 0 0 1 235.864 64.283 A 21.91 21.91 0 0 1 235.742 61.963 A 37.397 37.397 0 0 1 235.75 61.2 A 33.107 33.107 0 0 1 235.962 58.033 Q 236.113 56.74 236.16 55.806 A 15.486 15.486 0 0 0 236.182 55.03 Q 236.182 53.663 235.864 52.491 A 7.596 7.596 0 0 0 235.637 51.787 A 6.193 6.193 0 0 0 234.937 50.44 Q 234.326 49.561 233.374 49.048 A 4.14 4.14 0 0 0 232.273 48.648 A 5.337 5.337 0 0 0 231.152 48.536 Q 230.399 48.536 229.585 48.802 A 7.456 7.456 0 0 0 228.442 49.292 A 6.764 6.764 0 0 0 227.825 49.662 Q 227.236 50.056 226.651 50.61 A 13.101 13.101 0 0 0 225.586 51.758 A 44.682 44.682 0 0 0 225.409 51.979 A 48.841 48.841 0 0 0 222.852 55.518 A 81.611 81.611 0 0 0 220.361 59.546 A 138.886 138.886 0 0 0 220.071 60.051 A 125.291 125.291 0 0 0 218.164 63.501 A 94.233 94.233 0 0 0 217.2 65.363 A 72.567 72.567 0 0 0 216.357 67.09 L 216.309 64.795 L 216.309 63.086 L 216.309 60.791 L 216.309 58.35 L 216.309 56.25 Q 218.897 51.514 221.24 46.509 Q 223.584 41.504 225.342 36.231 Q 227.1 30.958 228.149 25.416 A 60.601 60.601 0 0 0 229.199 14.112 A 39.815 39.815 0 0 0 229.181 12.886 A 34.781 34.781 0 0 0 228.809 8.716 A 20.027 20.027 0 0 0 228.335 6.453 A 14.746 14.746 0 0 0 227.539 4.224 A 9.673 9.673 0 0 0 226.855 2.968 A 7.422 7.422 0 0 0 225.244 1.172 A 5.002 5.002 0 0 0 223.506 0.28 A 6.209 6.209 0 0 0 221.777 0.049 A 4.383 4.383 0 0 0 218.955 1.04 A 6.13 6.13 0 0 0 217.798 2.295 Q 216.211 4.541 215.186 8.667 A 45.023 45.023 0 0 0 214.733 10.695 Q 214.379 12.464 214.104 14.493 A 88.25 88.25 0 0 0 213.648 18.628 A 196.887 196.887 0 0 0 213.208 24.805 A 268.484 268.484 0 0 0 212.915 31.666 Q 212.695 38.868 212.671 47.242 A 5620.963 5620.963 0 0 0 212.653 55.829 A 6502.397 6502.397 0 0 0 212.653 55.87 A 2.179 2.179 0 0 0 212.5 56.153 A 46.972 46.972 0 0 1 211.95 57.328 Q 209.493 62.403 204.887 69.028 A 185.208 185.208 0 0 1 199.756 76.026 A 774.352 774.352 0 0 1 199.811 72.602 A 656.771 656.771 0 0 1 199.878 69.361 Q 199.919 67.589 199.953 66.057 A 1559.941 1559.941 0 0 0 200 63.819 A 510.589 510.589 0 0 1 200.023 62.75 Q 200.048 61.631 200.073 60.766 A 163.146 163.146 0 0 1 200.098 59.986 Q 200.147 58.545 200.147 58.497 Q 200.147 57.764 199.683 57.178 A 1.473 1.473 0 0 0 198.96 56.675 A 1.881 1.881 0 0 0 198.389 56.592 Q 197.656 56.592 197.119 57.056 Q 196.582 57.52 196.484 58.204 Q 196.143 60.743 195.337 62.598 Q 194.947 63.497 194.493 64.247 A 9.929 9.929 0 0 1 193.457 65.674 Q 192.92 66.285 192.365 66.736 A 6.43 6.43 0 0 1 191.235 67.481 A 6.984 6.984 0 0 1 191.135 67.531 Q 190.65 67.769 190.186 67.902 A 4.086 4.086 0 0 1 189.063 68.067 A 5.244 5.244 0 0 1 188 67.965 A 3.31 3.31 0 0 1 185.889 66.626 Q 184.863 65.186 184.863 62.842 A 18.415 18.415 0 0 1 184.87 62.36 Q 184.943 59.544 185.889 57.496 A 13.575 13.575 0 0 1 186.764 55.883 A 10.441 10.441 0 0 1 188.428 53.858 A 11.343 11.343 0 0 1 189.102 53.275 A 9.506 9.506 0 0 1 191.699 51.783 Q 192.592 51.448 193.409 51.283 A 7.658 7.658 0 0 1 194.922 51.124 Q 195.898 51.124 196.606 51.319 Q 196.96 51.416 197.266 51.539 A 4.498 4.498 0 0 1 197.827 51.807 A 8.242 8.242 0 0 1 198.059 51.945 Q 198.24 52.056 198.392 52.164 A 3.996 3.996 0 0 1 198.657 52.369 A 20.76 20.76 0 0 0 198.799 52.488 Q 199.02 52.672 199.17 52.784 A 2.609 2.609 0 0 0 199.612 53.089 A 1.821 1.821 0 0 0 200.488 53.321 Q 201.221 53.321 201.758 52.759 A 2.349 2.349 0 0 0 201.793 52.722 A 1.807 1.807 0 0 0 202.295 51.465 A 1.824 1.824 0 0 0 202.143 50.728 A 2.108 2.108 0 0 0 201.758 50.147 Q 201.715 50.104 201.336 49.762 A 200.257 200.257 0 0 0 201.221 49.659 A 4.64 4.64 0 0 0 200.836 49.351 Q 200.422 49.051 199.829 48.731 Q 199.321 48.456 198.697 48.213 A 14.932 14.932 0 0 0 197.656 47.852 A 8.43 8.43 0 0 0 196.585 47.599 A 10.237 10.237 0 0 0 194.873 47.461 A 11.083 11.083 0 0 0 192.73 47.676 A 13.892 13.892 0 0 0 190.21 48.438 Q 187.793 49.415 185.791 51.368 A 14.001 14.001 0 0 0 184.175 53.259 A 16.963 16.963 0 0 0 182.986 55.205 A 1.836 1.836 0 0 0 182.813 55.298 Q 182.373 55.567 182.129 56.055 A 71.218 71.218 0 0 1 180.891 58.422 A 57.077 57.077 0 0 1 179.053 61.548 A 47.112 47.112 0 0 1 178.954 61.704 Q 177.441 64.07 175.952 65.772 Q 175.087 66.761 174.245 67.502 A 12.258 12.258 0 0 1 172.949 68.506 A 7.868 7.868 0 0 1 172.739 68.642 Q 172.172 68.994 171.62 69.199 A 4.304 4.304 0 0 1 170.117 69.483 A 5.017 5.017 0 0 1 169.404 69.431 A 6.132 6.132 0 0 1 168.384 69.19 A 3.105 3.105 0 0 1 168.25 69.143 Q 167.785 68.968 167.346 68.635 A 5.069 5.069 0 0 1 166.675 68.018 Q 166.165 67.462 165.772 66.622 A 9.227 9.227 0 0 1 165.356 65.552 A 8.927 8.927 0 0 1 165.065 64.343 Q 164.949 63.679 164.894 62.897 A 21.689 21.689 0 0 1 164.844 61.377 A 68.393 68.393 0 0 1 164.874 59.382 A 89.207 89.207 0 0 1 164.966 57.203 Q 165.088 54.932 165.259 52.906 A 4937.162 4937.162 0 0 0 165.361 51.694 Q 165.468 50.422 165.552 49.415 Q 165.651 48.224 165.67 47.808 A 3.592 3.592 0 0 0 165.674 47.657 A 1.914 1.914 0 0 0 165.186 46.363 A 1.932 1.932 0 0 0 165.116 46.287 A 1.54 1.54 0 0 0 163.965 45.801 A 2.399 2.399 0 0 0 163.635 45.823 A 1.725 1.725 0 0 0 162.622 46.314 Q 162.109 46.827 162.012 47.51 A 112.1 112.1 0 0 0 161.282 55.736 A 1.871 1.871 0 0 0 161.084 56.055 Q 160.449 57.374 159.302 59.546 Q 158.154 61.719 156.641 63.819 Q 155.127 65.918 153.32 67.457 A 7.408 7.408 0 0 1 152.061 68.332 A 5.176 5.176 0 0 1 149.561 68.995 A 4.413 4.413 0 0 1 147.313 68.386 Q 146.502 67.916 145.775 67.083 A 10.387 10.387 0 0 1 144.629 65.455 A 20.698 20.698 0 0 1 143.317 62.706 Q 142.159 59.783 141.357 55.713 A 153.76 153.76 0 0 0 146.484 45.484 A 106.787 106.787 0 0 0 150.635 34.961 A 85.296 85.296 0 0 0 153.418 24.488 A 57.914 57.914 0 0 0 153.766 22.549 A 50.876 50.876 0 0 0 154.443 14.405 A 57.237 57.237 0 0 0 154.415 12.582 Q 154.327 9.795 153.955 7.715 Q 153.658 6.049 153.215 4.764 A 11.324 11.324 0 0 0 152.588 3.272 A 8.881 8.881 0 0 0 152.472 3.054 Q 151.625 1.514 150.415 0.806 Q 149.121 0.049 147.51 0.049 A 4.654 4.654 0 0 0 145.222 0.638 A 5.907 5.907 0 0 0 143.848 1.709 A 10.594 10.594 0 0 0 143.316 2.301 Q 142.651 3.098 142.052 4.112 A 19.784 19.784 0 0 0 140.991 6.202 A 28.538 28.538 0 0 0 140.827 6.582 Q 140.259 7.927 139.765 9.473 A 46.79 46.79 0 0 0 138.843 12.793 A 75.251 75.251 0 0 0 138.411 14.701 A 86.399 86.399 0 0 0 137.354 20.752 Q 136.768 24.952 136.499 29.346 A 150.927 150.927 0 0 0 136.382 31.525 A 135.734 135.734 0 0 0 136.231 37.842 A 99.777 99.777 0 0 0 136.234 38.655 Q 136.244 39.899 136.285 41.291 A 174.499 174.499 0 0 0 136.401 44.336 A 88.673 88.673 0 0 0 136.449 45.255 A 97.72 97.72 0 0 0 137.061 51.88 A 69.033 69.033 0 0 0 137.554 55.171 A 1.836 1.836 0 0 0 137.305 55.298 A 1.619 1.619 0 0 0 136.893 55.659 A 2.021 2.021 0 0 0 136.621 56.104 A 46.984 46.984 0 0 1 135.355 58.61 Q 134.534 60.115 133.695 61.349 A 21.03 21.03 0 0 1 131.885 63.672 A 30.203 30.203 0 0 1 130.738 64.869 Q 129.855 65.739 129.009 66.41 A 14.059 14.059 0 0 1 127.271 67.603 Q 125.913 68.381 124.755 68.759 A 7.391 7.391 0 0 1 123.438 69.068 A 46.93 46.93 0 0 1 122.677 69.163 Q 121.955 69.246 121.469 69.274 A 7.566 7.566 0 0 1 121.045 69.288 Q 118.652 69.288 116.748 68.189 A 7.822 7.822 0 0 1 116.386 67.967 A 6.283 6.283 0 0 1 114.014 65.235 Q 116.211 64.551 118.286 63.477 A 19.801 19.801 0 0 0 118.923 63.132 A 17.387 17.387 0 0 0 121.973 60.962 A 11.845 11.845 0 0 0 124.561 57.691 A 8.194 8.194 0 0 0 124.941 56.872 A 8.577 8.577 0 0 0 125.537 53.663 A 7.675 7.675 0 0 0 125.533 53.399 A 6.666 6.666 0 0 0 125.024 51.026 Q 124.512 49.805 123.608 48.902 Q 122.705 47.999 121.484 47.486 A 6.388 6.388 0 0 0 120.941 47.286 A 6.887 6.887 0 0 0 118.848 46.973 A 7.647 7.647 0 0 0 114.233 48.487 Q 112.158 50 110.498 52.344 Q 108.838 54.688 107.617 57.447 A 57.141 57.141 0 0 0 106.731 59.561 A 45.998 45.998 0 0 0 105.615 62.696 A 1495.781 1495.781 0 0 0 105.629 61.77 Q 105.65 60.353 105.67 58.761 A 2654.135 2654.135 0 0 0 105.713 55.274 A 1974.375 1974.375 0 0 1 105.768 50.965 A 2292.104 2292.104 0 0 1 105.835 46.436 Q 105.908 41.797 105.981 36.915 Q 106.055 32.032 106.128 27.417 A 4809.484 4809.484 0 0 1 106.201 22.931 A 4031.316 4031.316 0 0 1 106.274 18.702 Q 106.32 16.138 106.356 13.975 A 2788.211 2788.211 0 0 0 106.397 11.524 A 3515.512 3515.512 0 0 0 106.418 10.15 Q 106.44 8.715 106.456 7.61 A 1094.666 1094.666 0 0 0 106.47 6.617 A 4289.015 4289.015 0 0 0 106.476 6.182 Q 106.492 4.975 106.494 4.739 A 6.824 6.824 0 0 0 106.494 4.688 Q 106.494 3.858 105.957 3.345 A 1.814 1.814 0 0 0 105.369 2.965 A 1.966 1.966 0 0 0 104.639 2.833 A 1.752 1.752 0 0 0 103.891 2.999 A 2.213 2.213 0 0 0 103.369 3.345 A 1.715 1.715 0 0 0 102.949 3.885 A 1.698 1.698 0 0 0 102.783 4.639 A 27.233 27.233 0 0 1 102.783 4.786 Q 102.78 5.322 102.759 7.056 A 872.727 872.727 0 0 1 102.753 7.497 Q 102.729 9.42 102.686 12.281 A 2121.008 2121.008 0 0 1 102.671 13.199 Q 102.649 14.603 102.623 16.172 A 3683.104 3683.104 0 0 1 102.564 19.605 Q 102.49 23.731 102.441 28.321 Q 102.393 32.911 102.295 37.745 A 1071.416 1071.416 0 0 0 102.283 38.348 A 984.393 984.393 0 0 0 102.148 47.144 A 1296.865 1296.865 0 0 1 102.094 51.587 A 1094.713 1094.713 0 0 1 102.03 55.558 A 1.496 1.496 0 0 0 101.709 56.055 Q 101.611 56.348 101.05 57.496 A 16.989 16.989 0 0 1 100.756 58.067 Q 100.499 58.546 100.176 59.083 A 36.255 36.255 0 0 1 99.487 60.181 A 32.633 32.633 0 0 1 98.383 61.768 A 43.954 43.954 0 0 1 97.07 63.453 A 19.662 19.662 0 0 1 96.981 63.561 A 21.073 21.073 0 0 1 93.799 66.651 Q 91.943 68.116 89.697 69.068 A 11.614 11.614 0 0 1 88.403 69.528 A 12.804 12.804 0 0 1 84.814 70.02 A 8.694 8.694 0 0 1 83.298 69.893 A 6.423 6.423 0 0 1 81.274 69.19 Q 79.785 68.36 78.809 66.968 Q 77.832 65.577 77.344 63.77 A 13.524 13.524 0 0 1 77.203 63.201 A 14.764 14.764 0 0 1 76.856 59.961 A 15.402 15.402 0 0 1 76.864 59.44 A 13.647 13.647 0 0 1 77.417 55.982 A 14.052 14.052 0 0 1 77.934 54.535 A 10.987 10.987 0 0 1 78.906 52.71 A 9.129 9.129 0 0 1 79.39 52.05 A 7.532 7.532 0 0 1 81.079 50.489 Q 82.324 49.659 83.691 49.659 A 4.562 4.562 0 0 1 84.393 49.711 A 3.33 3.33 0 0 1 86.108 50.489 A 3.345 3.345 0 0 1 86.613 51.03 A 2.182 2.182 0 0 1 87.061 52.344 Q 87.061 52.802 86.994 53.155 A 2.415 2.415 0 0 1 86.89 53.541 Q 86.799 53.787 86.694 53.992 A 2.865 2.865 0 0 1 86.499 54.322 Q 86.279 54.639 86.108 54.932 A 1.209 1.209 0 0 0 85.979 55.255 A 1.51 1.51 0 0 0 85.938 55.616 A 2.363 2.363 0 0 0 85.938 55.64 A 1.833 1.833 0 0 0 86.45 56.934 A 1.666 1.666 0 0 0 87.171 57.383 A 2.085 2.085 0 0 0 87.793 57.471 Q 88.33 57.471 88.867 57.056 A 3.384 3.384 0 0 0 89.403 56.532 A 4.535 4.535 0 0 0 89.819 55.933 A 6.274 6.274 0 0 0 90.165 55.246 A 8.017 8.017 0 0 0 90.503 54.297 Q 90.772 53.37 90.772 52.295 Q 90.772 51.172 90.259 50.049 A 7.234 7.234 0 0 0 88.843 47.999 A 6.206 6.206 0 0 0 88.107 47.354 A 7.166 7.166 0 0 0 86.621 46.509 Q 85.303 45.948 83.691 45.948 Q 81.543 45.948 79.639 47.046 Q 77.734 48.145 76.294 50.049 A 13.545 13.545 0 0 0 75.224 51.705 A 16.193 16.193 0 0 0 74.023 54.517 A 16.366 16.366 0 0 0 73.792 55.3 A 1.84 1.84 0 0 0 73.755 55.323 A 1.794 1.794 0 0 0 73.423 55.592 A 1.967 1.967 0 0 0 73.047 56.153 A 83.015 83.015 0 0 1 72.753 56.766 Q 72.597 57.089 72.421 57.446 A 157.138 157.138 0 0 1 71.973 58.35 A 32.944 32.944 0 0 1 71.469 59.316 A 39.433 39.433 0 0 1 70.508 60.987 A 34.46 34.46 0 0 1 68.677 63.697 A 21.288 21.288 0 0 1 68.17 64.35 A 18.337 18.337 0 0 1 66.577 66.089 A 12.624 12.624 0 0 1 65.746 66.818 A 10.066 10.066 0 0 1 64.331 67.774 A 5.649 5.649 0 0 1 63.81 68.029 A 4.554 4.554 0 0 1 62.012 68.409 A 4.803 4.803 0 0 1 61.414 68.373 A 3.351 3.351 0 0 1 59.18 67.188 A 7.602 7.602 0 0 1 58.582 66.372 A 8.522 8.522 0 0 1 57.642 64.307 A 16.008 16.008 0 0 1 56.982 60.962 A 153.047 153.047 0 0 1 56.919 60.214 Q 56.825 59.06 56.787 58.35 A 1.851 1.851 0 0 0 56.622 57.703 A 2.107 2.107 0 0 0 56.226 57.129 A 2.121 2.121 0 0 0 56.128 57.033 A 1.575 1.575 0 0 0 55.029 56.592 Q 54.297 56.592 53.76 57.056 Q 53.223 57.52 53.125 58.204 A 21.42 21.42 0 0 1 53.08 58.518 Q 52.73 60.859 51.929 62.598 A 18.414 18.414 0 0 1 51.819 62.831 Q 51.008 64.531 50.024 65.674 A 10.503 10.503 0 0 1 49.962 65.746 Q 49.496 66.278 49.01 66.686 A 6.296 6.296 0 0 1 47.827 67.481 Q 46.68 68.067 45.801 68.067 A 5.935 5.935 0 0 1 45.659 68.065 Q 45.168 68.053 44.742 67.96 A 3.378 3.378 0 0 1 43.75 67.579 Q 42.92 67.09 42.432 66.309 A 5.006 5.006 0 0 1 42.398 66.254 A 5.232 5.232 0 0 1 41.748 64.576 A 9.337 9.337 0 0 1 41.553 62.696 A 18.4 18.4 0 0 1 41.554 62.51 Q 41.567 61.206 41.765 60.06 A 10.869 10.869 0 0 1 42.505 57.544 A 13.977 13.977 0 0 1 43.302 55.988 A 10.848 10.848 0 0 1 44.873 53.931 A 10.551 10.551 0 0 1 45.414 53.418 A 8.869 8.869 0 0 1 47.998 51.807 Q 49.707 51.124 51.221 51.124 A 9.53 9.53 0 0 1 51.253 51.124 Q 51.748 51.125 52.191 51.178 A 5.976 5.976 0 0 1 53.052 51.343 A 10.598 10.598 0 0 1 53.164 51.375 Q 53.899 51.584 54.443 51.856 Q 54.814 52.041 55.087 52.217 A 3.702 3.702 0 0 1 55.371 52.417 A 18.894 18.894 0 0 1 55.488 52.51 Q 55.731 52.704 55.811 52.784 A 1.819 1.819 0 0 0 56.353 53.162 A 1.872 1.872 0 0 0 57.129 53.321 Q 57.861 53.321 58.398 52.759 A 2.349 2.349 0 0 0 58.434 52.722 A 1.807 1.807 0 0 0 58.936 51.465 A 1.803 1.803 0 0 0 58.734 50.645 A 2.555 2.555 0 0 0 58.398 50.147 Q 58.356 50.104 57.977 49.781 A 123.791 123.791 0 0 0 57.861 49.683 A 3.846 3.846 0 0 0 57.851 49.674 Q 57.363 49.263 56.47 48.78 A 9.375 9.375 0 0 0 56.208 48.644 Q 55.388 48.233 54.297 47.876 A 8.016 8.016 0 0 0 53.225 47.608 A 9.649 9.649 0 0 0 51.514 47.461 A 11.083 11.083 0 0 0 49.37 47.676 A 13.892 13.892 0 0 0 46.851 48.438 Q 44.434 49.415 42.432 51.368 A 14.001 14.001 0 0 0 40.815 53.259 A 16.963 16.963 0 0 0 39.641 55.176 A 1.836 1.836 0 0 0 39.404 55.298 Q 38.965 55.567 38.721 56.055 Q 38.393 56.735 37.975 57.473 A 33.446 33.446 0 0 1 37.109 58.912 A 25.302 25.302 0 0 1 34.985 61.792 A 15.932 15.932 0 0 1 34.111 62.738 A 12.893 12.893 0 0 1 32.593 64.039 A 6.511 6.511 0 0 1 32.355 64.203 Q 31.891 64.509 31.437 64.689 A 3.417 3.417 0 0 1 30.176 64.942 A 7.232 7.232 0 0 1 29.026 64.855 A 5.271 5.271 0 0 1 27.783 64.502 A 8.803 8.803 0 0 1 26.942 64.09 A 6.759 6.759 0 0 1 26.025 63.477 A 6.902 6.902 0 0 1 25.422 62.936 A 5.13 5.13 0 0 1 24.854 62.256 Q 24.551 61.819 24.364 61.498 A 4.863 4.863 0 0 1 24.219 61.231 A 19.274 19.274 0 0 0 24.365 58.838 A 17.859 17.859 0 0 0 23.877 54.688 A 13.58 13.58 0 0 0 23.628 53.781 A 11.489 11.489 0 0 0 22.363 51.026 A 8.281 8.281 0 0 0 19.8 48.438 A 6.043 6.043 0 0 0 18.036 47.683 A 7.59 7.59 0 0 0 16.162 47.461 Q 14.941 47.461 13.843 47.925 Q 12.744 48.389 11.89 49.244 A 5.827 5.827 0 0 0 11.533 49.634 A 6.28 6.28 0 0 0 10.547 51.294 A 6.343 6.343 0 0 0 10.269 52.143 A 7.196 7.196 0 0 0 10.059 53.907 A 6.024 6.024 0 0 0 10.132 54.823 A 8.075 8.075 0 0 0 10.352 55.811 A 8.123 8.123 0 0 0 11.182 57.74 A 6.026 6.026 0 0 0 11.4 58.08 A 5.097 5.097 0 0 0 12.476 59.229 A 2.755 2.755 0 0 0 14.209 59.815 A 1.772 1.772 0 0 0 14.882 59.685 A 2.045 2.045 0 0 0 15.454 59.327 A 1.563 1.563 0 0 0 15.93 58.605 A 1.977 1.977 0 0 0 16.016 58.008 Q 16.016 56.983 15.186 56.397 A 4.394 4.394 0 0 1 14.986 56.26 Q 14.7 56.052 14.49 55.823 A 2.288 2.288 0 0 1 14.063 55.176 A 3.966 3.966 0 0 1 13.978 54.963 A 3.373 3.373 0 0 1 13.77 53.809 A 1.289 1.289 0 0 1 13.77 53.763 Q 13.776 53.602 13.818 53.223 A 2.248 2.248 0 0 1 13.916 52.778 A 2.916 2.916 0 0 1 14.111 52.32 A 2.242 2.242 0 0 1 14.417 51.88 A 2.836 2.836 0 0 1 14.844 51.49 A 1.567 1.567 0 0 1 15.199 51.292 Q 15.423 51.201 15.7 51.159 A 3.425 3.425 0 0 1 16.211 51.124 A 3.835 3.835 0 0 1 16.464 51.132 A 2.989 2.989 0 0 1 18.213 51.807 A 4.98 4.98 0 0 1 18.932 52.539 A 6.135 6.135 0 0 1 19.605 53.589 A 8.301 8.301 0 0 1 20.026 54.568 A 10.213 10.213 0 0 1 20.435 56.08 Q 20.703 57.471 20.703 58.838 A 13.347 13.347 0 0 1 20.093 62.842 A 14.281 14.281 0 0 1 19.848 63.56 A 12.312 12.312 0 0 1 18.408 66.333 A 10.519 10.519 0 0 1 18.186 66.64 A 9.112 9.112 0 0 1 15.869 68.824 A 6.697 6.697 0 0 1 15.846 68.839 A 5.629 5.629 0 0 1 12.744 69.776 A 4.598 4.598 0 0 1 9.814 68.775 A 7.669 7.669 0 0 1 8.622 67.593 A 10.015 10.015 0 0 1 7.617 66.089 A 15.206 15.206 0 0 1 6.865 64.507 A 19.261 19.261 0 0 1 6.104 62.232 A 30.138 30.138 0 0 1 5.957 61.668 A 33.296 33.296 0 0 1 5.225 57.666 A 319.872 319.872 0 0 0 7.385 52.741 A 370.042 370.042 0 0 0 9.57 47.535 A 147.146 147.146 0 0 0 13.55 36.646 A 102.449 102.449 0 0 0 16.455 25.538 A 60.74 60.74 0 0 0 16.837 23.462 A 53.239 53.239 0 0 0 17.578 14.747 A 39.349 39.349 0 0 0 17.485 11.987 A 30.754 30.754 0 0 0 17.09 8.741 A 24.821 24.821 0 0 0 16.988 8.204 Q 16.507 5.814 15.649 4.078 A 10.127 10.127 0 0 0 14.732 2.554 A 7.367 7.367 0 0 0 13.306 1.075 A 5.091 5.091 0 0 0 10.107 0 A 5.386 5.386 0 0 0 9.151 0.087 A 6.456 6.456 0 0 0 7.813 0.489 Q 7.071 0.798 6.349 1.449 A 8.598 8.598 0 0 0 5.518 2.32 Q 4.395 3.663 3.394 6.08 A 21.467 21.467 0 0 0 2.82 7.647 Q 2.168 9.651 1.636 12.378 A 56.98 56.98 0 0 0 1.298 14.289 Q 0.776 17.559 0.439 21.802 Q 0.165 25.266 0.062 29.521 A 223.262 223.262 0 0 0 0 34.913 A 347.766 347.766 0 0 0 0.024 38.978 A 407.426 407.426 0 0 0 0.098 43.262 Q 0.195 47.657 0.61 51.954 A 90.588 90.588 0 0 0 0.779 53.551 A 80.238 80.238 0 0 0 1.807 60.157 A 35.012 35.012 0 0 0 2.673 63.61 A 25.92 25.92 0 0 0 3.98 67.017 A 16.121 16.121 0 0 0 5.227 69.22 A 12.178 12.178 0 0 0 7.471 71.729 A 7.314 7.314 0 0 0 9.81 73.054 A 8.39 8.39 0 0 0 12.549 73.487 A 8.778 8.778 0 0 0 15.698 72.901 A 11.448 11.448 0 0 0 18.604 71.265 A 14.267 14.267 0 0 0 21.094 68.799 A 15.124 15.124 0 0 0 22.998 65.674 Q 23.599 66.275 24.382 66.813 A 13.673 13.673 0 0 0 25.879 67.701 Q 26.923 68.237 28.242 68.455 A 11.875 11.875 0 0 0 30.176 68.604 A 6.692 6.692 0 0 0 33.203 67.872 A 12.665 12.665 0 0 0 35.938 66.016 Z M 4.297 51.416 Q 5.957 47.315 7.666 42.798 A 124.508 124.508 0 0 0 10.742 33.594 A 95.288 95.288 0 0 0 12.988 24.122 A 52.091 52.091 0 0 0 13.867 14.698 A 40.312 40.312 0 0 0 13.772 11.98 A 46.596 46.596 0 0 0 13.696 11.011 A 22.345 22.345 0 0 0 13.419 8.942 A 17.892 17.892 0 0 0 13.086 7.471 Q 12.678 5.977 11.998 4.944 A 6.203 6.203 0 0 0 11.89 4.786 A 2.864 2.864 0 0 0 11.32 4.174 A 2.142 2.142 0 0 0 9.961 3.711 A 0.811 0.811 0 0 0 9.695 3.761 Q 9.455 3.845 9.154 4.07 A 4.324 4.324 0 0 0 8.96 4.224 A 3.191 3.191 0 0 0 8.571 4.621 Q 8.202 5.062 7.808 5.77 A 13.193 13.193 0 0 0 7.666 6.031 A 12.03 12.03 0 0 0 7.239 6.937 Q 6.8 7.969 6.361 9.412 A 39.04 39.04 0 0 0 6.299 9.62 Q 5.832 11.188 5.421 13.339 A 69.015 69.015 0 0 0 5.054 15.455 Q 4.492 18.995 4.126 23.975 A 121.818 121.818 0 0 0 3.903 27.958 Q 3.76 31.482 3.76 35.694 A 216.943 216.943 0 0 0 3.809 40.259 A 345.043 345.043 0 0 0 3.864 42.524 A 297.368 297.368 0 0 0 3.931 44.678 A 214.603 214.603 0 0 0 4.01 46.692 A 164.693 164.693 0 0 0 4.102 48.536 A 153.255 153.255 0 0 0 4.15 49.375 Q 4.213 50.406 4.276 51.173 A 50.434 50.434 0 0 0 4.297 51.416 Z M 139.941 38.086 A 121.998 121.998 0 0 0 140.024 42.637 A 108.129 108.129 0 0 0 140.088 44.092 Q 140.234 46.973 140.479 49.61 A 106.366 106.366 0 0 0 143.445 43.389 A 120.375 120.375 0 0 0 144.385 41.187 A 103.429 103.429 0 0 0 147.656 32.154 Q 149.072 27.588 149.927 23.072 A 49.23 49.23 0 0 0 150.68 17.322 A 41.551 41.551 0 0 0 150.781 14.454 Q 150.781 10.021 150.232 7.525 A 9.91 9.91 0 0 0 149.854 6.202 A 7.386 7.386 0 0 0 149.417 5.231 Q 148.801 4.107 147.973 3.815 A 1.815 1.815 0 0 0 147.363 3.711 Q 146.374 3.711 145.453 5.03 A 6.608 6.608 0 0 0 145.386 5.127 A 11.087 11.087 0 0 0 144.703 6.306 Q 144.38 6.944 144.073 7.712 A 25.597 25.597 0 0 0 143.604 8.985 A 38.309 38.309 0 0 0 142.905 11.289 Q 142.474 12.879 142.09 14.747 A 82.5 82.5 0 0 0 141.321 19.088 A 99.273 99.273 0 0 0 140.942 21.875 A 137.207 137.207 0 0 0 140.356 27.781 A 154.776 154.776 0 0 0 140.21 29.834 A 127.769 127.769 0 0 0 139.941 38.086 Z M 216.357 49.073 Q 218.408 44.581 220.093 40.308 A 88.999 88.999 0 0 0 222.974 31.788 Q 224.17 27.54 224.854 23.169 A 58.113 58.113 0 0 0 225.526 15.241 A 64.694 64.694 0 0 0 225.537 14.063 Q 225.537 13.311 225.469 11.699 A 168.917 168.917 0 0 0 225.464 11.573 A 21.494 21.494 0 0 0 225.024 8.106 A 11.761 11.761 0 0 0 224.53 6.374 A 9.14 9.14 0 0 0 223.901 5.03 A 3.048 3.048 0 0 0 223.354 4.32 A 2.216 2.216 0 0 0 221.777 3.711 A 1.616 1.616 0 0 0 220.733 4.106 Q 220.479 4.314 220.248 4.631 A 4.614 4.614 0 0 0 219.922 5.152 A 10.549 10.549 0 0 0 219.386 6.32 Q 219.158 6.899 218.95 7.584 A 24.982 24.982 0 0 0 218.555 9.058 A 41.126 41.126 0 0 0 218.079 11.37 Q 217.798 12.955 217.578 14.795 Q 217.188 18.067 216.943 21.729 A 215.606 215.606 0 0 0 216.577 29.249 Q 216.455 33.106 216.406 36.744 A 563.626 563.626 0 0 0 216.37 40.265 A 459.374 459.374 0 0 0 216.357 43.555 L 216.357 49.073 Z M 196.045 86.719 A 48.484 48.484 0 0 0 192.187 93.048 A 53.609 53.609 0 0 0 191.895 93.628 A 64.04 64.04 0 0 0 188.721 101.172 A 57.789 57.789 0 0 0 187.141 106.534 A 50.022 50.022 0 0 0 186.694 108.57 A 41.576 41.576 0 0 0 186.21 111.565 Q 186.028 113.054 185.994 114.385 A 23.634 23.634 0 0 0 185.986 114.991 Q 185.986 116.777 186.297 117.848 A 4.964 4.964 0 0 0 186.304 117.872 A 7.364 7.364 0 0 0 186.539 118.552 Q 186.781 119.147 187.085 119.532 A 2.897 2.897 0 0 0 187.47 119.937 Q 187.735 120.163 188.026 120.281 A 1.777 1.777 0 0 0 188.11 120.313 A 3.775 3.775 0 0 0 188.621 120.453 A 2.793 2.793 0 0 0 189.16 120.508 A 3.397 3.397 0 0 0 191.547 119.54 A 4.648 4.648 0 0 0 191.797 119.288 Q 192.92 118.067 193.701 116.041 A 22.467 22.467 0 0 0 194.409 113.862 Q 194.722 112.714 194.963 111.419 A 35.782 35.782 0 0 0 194.971 111.377 A 57.017 57.017 0 0 0 195.703 105.933 A 108.412 108.412 0 0 0 196.045 100.342 A 167.068 167.068 0 0 0 196.118 97.669 A 129.031 129.031 0 0 0 196.143 95.215 L 196.143 91.016 A 96.803 96.803 0 0 0 196.045 86.719 Z M 352.832 86.719 A 48.484 48.484 0 0 0 348.974 93.048 A 53.609 53.609 0 0 0 348.682 93.628 A 64.04 64.04 0 0 0 345.508 101.172 A 57.789 57.789 0 0 0 343.928 106.534 A 50.022 50.022 0 0 0 343.481 108.57 A 41.576 41.576 0 0 0 342.997 111.565 Q 342.815 113.054 342.781 114.385 A 23.634 23.634 0 0 0 342.773 114.991 Q 342.773 116.777 343.084 117.848 A 4.964 4.964 0 0 0 343.091 117.872 A 7.364 7.364 0 0 0 343.326 118.552 Q 343.568 119.147 343.872 119.532 A 2.897 2.897 0 0 0 344.257 119.937 Q 344.522 120.163 344.814 120.281 A 1.777 1.777 0 0 0 344.898 120.313 A 3.775 3.775 0 0 0 345.408 120.453 A 2.793 2.793 0 0 0 345.947 120.508 A 3.397 3.397 0 0 0 348.334 119.54 A 4.648 4.648 0 0 0 348.584 119.288 Q 349.707 118.067 350.488 116.041 A 22.467 22.467 0 0 0 351.196 113.862 Q 351.509 112.714 351.75 111.419 A 35.782 35.782 0 0 0 351.758 111.377 A 57.017 57.017 0 0 0 352.49 105.933 A 108.412 108.412 0 0 0 352.832 100.342 A 167.068 167.068 0 0 0 352.905 97.669 A 129.031 129.031 0 0 0 352.93 95.215 L 352.93 91.016 A 96.803 96.803 0 0 0 352.832 86.719 Z M 259.326 24.073 L 253.564 24.073 Q 252.881 27.1 252.466 31.568 Q 252.181 34.639 252.091 38.623 A 170.518 170.518 0 0 0 252.051 42.432 A 114.982 114.982 0 0 0 252.063 44.143 Q 252.1 46.596 252.246 48.406 A 42.999 42.999 0 0 0 252.246 48.414 Q 252.441 50.831 252.832 52.784 A 61.238 61.238 0 0 0 254.799 47.886 A 71.464 71.464 0 0 0 255.493 45.826 A 87.593 87.593 0 0 0 257.544 38.282 A 80.34 80.34 0 0 0 258.833 31.04 A 73.991 73.991 0 0 0 258.862 30.811 A 61.781 61.781 0 0 0 259.21 27.295 A 46.99 46.99 0 0 0 259.326 24.073 Z M 168.566 34.958 A 4.376 4.376 0 0 0 169.043 32.911 A 4.997 4.997 0 0 0 169.042 32.838 A 4.374 4.374 0 0 0 168.701 31.177 Q 168.359 30.372 167.749 29.761 Q 167.139 29.151 166.333 28.809 Q 165.527 28.467 164.6 28.467 A 4.997 4.997 0 0 0 164.527 28.468 A 4.374 4.374 0 0 0 162.866 28.809 Q 162.061 29.151 161.45 29.761 Q 160.84 30.372 160.498 31.177 Q 160.156 31.983 160.156 32.911 A 5.282 5.282 0 0 0 160.157 32.968 A 4.28 4.28 0 0 0 161.45 36.06 A 4.469 4.469 0 0 0 162.553 36.877 A 4.376 4.376 0 0 0 164.6 37.354 A 5.282 5.282 0 0 0 164.657 37.354 A 4.28 4.28 0 0 0 167.749 36.06 A 4.469 4.469 0 0 0 168.566 34.958 Z M 280.87 34.958 A 4.376 4.376 0 0 0 281.348 32.911 A 4.997 4.997 0 0 0 281.347 32.838 A 4.374 4.374 0 0 0 281.006 31.177 Q 280.664 30.372 280.054 29.761 Q 279.443 29.151 278.638 28.809 Q 277.832 28.467 276.904 28.467 A 4.997 4.997 0 0 0 276.832 28.468 A 4.374 4.374 0 0 0 275.171 28.809 Q 274.365 29.151 273.755 29.761 Q 273.145 30.372 272.803 31.177 Q 272.461 31.983 272.461 32.911 A 5.282 5.282 0 0 0 272.461 32.968 A 4.28 4.28 0 0 0 273.755 36.06 A 4.469 4.469 0 0 0 274.857 36.877 A 4.376 4.376 0 0 0 276.904 37.354 A 5.282 5.282 0 0 0 276.962 37.354 A 4.28 4.28 0 0 0 280.054 36.06 A 4.469 4.469 0 0 0 280.87 34.958 Z M 254.443 20.655 L 259.131 20.655 Q 258.894 18.663 258.449 17.5 A 6.173 6.173 0 0 0 258.423 17.432 Q 257.959 16.26 257.373 16.26 A 0.626 0.626 0 0 0 257.113 16.327 Q 256.759 16.491 256.238 17.061 A 8.741 8.741 0 0 0 256.104 17.212 A 4.604 4.604 0 0 0 255.637 17.87 Q 255.04 18.865 254.443 20.655 Z M 166.309 32.911 A 1.631 1.631 0 0 0 165.828 31.748 A 2.141 2.141 0 0 0 165.796 31.714 A 1.787 1.787 0 0 0 165.268 31.342 A 1.606 1.606 0 0 0 164.6 31.202 Q 163.916 31.202 163.428 31.714 A 1.68 1.68 0 0 0 162.939 32.911 A 1.596 1.596 0 0 0 163.413 34.067 A 1.96 1.96 0 0 0 163.428 34.083 Q 163.916 34.571 164.6 34.571 A 1.68 1.68 0 0 0 165.796 34.083 A 1.66 1.66 0 0 0 166.18 33.545 A 1.566 1.566 0 0 0 166.309 32.911 Z M 278.613 32.911 A 1.631 1.631 0 0 0 278.133 31.748 A 2.141 2.141 0 0 0 278.101 31.714 A 1.787 1.787 0 0 0 277.573 31.342 A 1.606 1.606 0 0 0 276.904 31.202 Q 276.221 31.202 275.732 31.714 A 1.68 1.68 0 0 0 275.244 32.911 A 1.596 1.596 0 0 0 275.717 34.067 A 1.96 1.96 0 0 0 275.732 34.083 Q 276.221 34.571 276.904 34.571 A 1.68 1.68 0 0 0 278.101 34.083 A 1.66 1.66 0 0 0 278.485 33.545 A 1.566 1.566 0 0 0 278.613 32.911 Z M 253.613 56.348 L 253.613 56.299 L 253.613 56.348 Z" vector-effect="non-scaling-stroke"/></g></svg>