<svg width="283.887" height="118.702" viewBox="0 0 283.887 118.702" xmlns="http://www.w3.org/2000/svg"><g id="svgGroup" stroke-linecap="round" fill-rule="evenodd" font-size="9pt" stroke="#000" stroke-width="0.25mm" fill="#000" style="stroke:#000;stroke-width:0.25mm;fill:#000"><path d="M 3.711 73.584 A 39.315 39.315 0 0 0 8.76 70.893 A 34.622 34.622 0 0 0 10.278 69.873 A 43.11 43.11 0 0 0 14.04 66.883 A 37.176 37.176 0 0 0 15.552 65.455 A 34.494 34.494 0 0 0 18.301 62.368 A 28.991 28.991 0 0 0 19.507 60.718 A 34.919 34.919 0 0 0 20.978 58.356 A 26.092 26.092 0 0 0 22.119 56.104 A 1.826 1.826 0 0 1 22.422 55.594 A 9.608 9.608 0 0 0 22.538 55.262 Q 22.598 55.081 22.664 54.864 A 27.413 27.413 0 0 0 22.803 54.395 A 19.583 19.583 0 0 0 22.958 53.812 Q 23.206 52.832 23.535 51.221 A 30.655 30.655 0 0 1 21.936 51.178 A 33.536 33.536 0 0 1 21.826 51.172 A 5.487 5.487 0 0 1 20.58 50.963 A 4.921 4.921 0 0 1 20.19 50.83 Q 19.434 50.538 18.945 49.903 A 2.157 2.157 0 0 1 18.595 49.2 Q 18.504 48.899 18.473 48.539 A 4.587 4.587 0 0 1 18.457 48.145 A 4.098 4.098 0 0 1 18.502 47.569 Q 18.602 46.872 18.921 45.899 Q 19.385 44.483 20.166 43.116 A 12.451 12.451 0 0 1 21.219 41.55 A 10.445 10.445 0 0 1 21.924 40.747 A 4.458 4.458 0 0 1 22.504 40.241 Q 22.847 39.994 23.19 39.87 A 2.014 2.014 0 0 1 23.877 39.747 Q 25 39.747 25.708 40.577 A 5.483 5.483 0 0 1 26.501 41.824 A 6.912 6.912 0 0 1 26.807 42.603 A 13.78 13.78 0 0 1 27.363 45.076 A 15.007 15.007 0 0 1 27.368 45.118 Q 27.539 46.436 27.539 47.413 A 54.01 54.01 0 0 0 29.175 47.388 A 54.63 54.63 0 0 1 29.962 47.37 A 47.322 47.322 0 0 1 30.713 47.364 A 10.162 10.162 0 0 1 32.324 47.483 Q 33.954 47.745 34.961 48.584 Q 36.426 49.805 36.426 52.588 A 19.029 19.029 0 0 1 36.343 54.328 A 21.821 21.821 0 0 1 36.279 54.932 A 82.614 82.614 0 0 1 35.986 57.124 A 90.615 90.615 0 0 1 35.938 57.447 A 74.032 74.032 0 0 0 35.596 60.01 A 21.718 21.718 0 0 0 35.449 62.5 A 10.431 10.431 0 0 0 35.515 63.709 Q 35.586 64.316 35.733 64.827 A 5.047 5.047 0 0 0 35.938 65.406 A 6.457 6.457 0 0 0 36.411 66.321 Q 36.725 66.819 37.107 67.188 A 3.999 3.999 0 0 0 37.158 67.237 A 4.647 4.647 0 0 0 37.964 67.846 A 3.766 3.766 0 0 0 38.721 68.189 A 6.121 6.121 0 0 0 39.419 68.372 Q 39.783 68.444 40.113 68.455 A 3.581 3.581 0 0 0 40.234 68.457 A 6.39 6.39 0 0 0 43.663 67.448 A 8.08 8.08 0 0 0 44.189 67.09 A 18.338 18.338 0 0 0 47.187 64.297 A 20.788 20.788 0 0 0 47.607 63.794 A 31.79 31.79 0 0 0 50.415 59.717 A 117.405 117.405 0 0 0 51.291 58.181 Q 51.716 57.421 52.078 56.742 A 60.626 60.626 0 0 0 52.49 55.957 A 1.726 1.726 0 0 1 53.062 55.341 A 17.528 17.528 0 0 1 53.874 53.986 A 13.063 13.063 0 0 1 55.273 52.222 Q 56.738 50.684 58.203 49.927 A 12.768 12.768 0 0 1 58.89 49.596 Q 59.552 49.303 60.019 49.211 A 2.006 2.006 0 0 1 60.4 49.17 Q 60.978 49.17 61.354 49.383 A 1.228 1.228 0 0 1 61.646 49.61 A 1.483 1.483 0 0 1 62.018 50.343 A 2.153 2.153 0 0 1 62.061 50.782 Q 62.061 51.471 61.707 51.874 A 1.295 1.295 0 0 1 61.548 52.027 Q 61.107 52.383 60.468 52.722 A 10.167 10.167 0 0 1 60.254 52.832 A 7.547 7.547 0 0 0 59.552 53.235 Q 59.204 53.458 58.839 53.738 A 13.013 13.013 0 0 0 58.594 53.931 A 7.969 7.969 0 0 0 57.555 54.945 A 10.075 10.075 0 0 0 56.958 55.713 A 8.805 8.805 0 0 0 56.154 57.127 A 11.286 11.286 0 0 0 55.713 58.252 Q 55.225 59.717 55.225 61.524 A 9.379 9.379 0 0 0 55.466 63.681 A 8.308 8.308 0 0 0 55.713 64.527 A 7 7 0 0 0 56.636 66.317 A 6.355 6.355 0 0 0 57.129 66.919 Q 58.057 67.92 59.326 68.482 Q 60.596 69.043 62.158 69.043 A 9.885 9.885 0 0 0 64.187 68.846 Q 65.565 68.557 66.632 67.846 A 6.267 6.267 0 0 0 66.772 67.749 A 8.586 8.586 0 0 0 69.58 64.454 A 12.754 12.754 0 0 1 64.844 60.157 Q 62.988 57.373 62.988 53.907 A 9.456 9.456 0 0 1 63.177 51.963 Q 63.492 50.464 64.331 49.366 A 4.516 4.516 0 0 1 65.723 48.134 Q 66.669 47.608 67.871 47.608 A 5.152 5.152 0 0 1 70.361 48.243 Q 71.533 48.877 72.437 50.245 Q 73.197 51.395 73.698 53.1 A 16.754 16.754 0 0 1 73.877 53.76 Q 74.334 55.587 74.402 58.014 A 31.017 31.017 0 0 1 74.414 58.887 Q 74.414 60.45 74.023 62.159 A 3.558 3.558 0 0 0 74.609 62.207 L 75.244 62.207 A 12.117 12.117 0 0 0 76.819 62.11 A 9.105 9.105 0 0 0 78.223 61.817 A 7.802 7.802 0 0 0 80.615 60.645 A 7.989 7.989 0 0 0 82.046 59.295 A 9.641 9.641 0 0 0 82.544 58.643 A 18.218 18.218 0 0 0 83.457 57.191 A 24.009 24.009 0 0 0 83.9 56.371 A 2.484 2.484 0 0 1 83.984 56.104 A 62.985 62.985 0 0 1 85.265 53.245 Q 86.754 50.147 88.11 48.414 A 10.22 10.22 0 0 1 89.103 47.306 Q 90.53 45.948 91.943 45.948 A 3.74 3.74 0 0 1 92.861 46.055 A 2.882 2.882 0 0 1 93.848 46.509 A 3.938 3.938 0 0 1 94.988 47.8 A 4.671 4.671 0 0 1 95.093 47.998 A 7.701 7.701 0 0 1 95.651 49.5 A 9.025 9.025 0 0 1 95.776 50.049 Q 95.996 51.172 95.996 52.344 Q 95.996 53.207 95.878 55.012 A 118.802 118.802 0 0 1 95.874 55.079 A 138.904 138.904 0 0 1 95.734 57.001 A 170.62 170.62 0 0 1 95.557 59.058 A 404.549 404.549 0 0 0 95.19 63.282 A 251.754 251.754 0 0 1 95.107 64.289 Q 94.985 65.712 94.877 66.763 A 85.426 85.426 0 0 1 94.873 66.797 A 92.616 92.616 0 0 1 95.715 65.107 A 124.703 124.703 0 0 1 96.68 63.257 A 96.816 96.816 0 0 1 98.877 59.351 Q 100.049 57.373 101.343 55.42 A 49.41 49.41 0 0 1 104.053 51.709 A 13.101 13.101 0 0 1 105.118 50.562 Q 105.703 50.007 106.291 49.613 A 6.764 6.764 0 0 1 106.909 49.244 A 7.456 7.456 0 0 1 108.051 48.754 Q 108.865 48.487 109.619 48.487 A 5.477 5.477 0 0 1 111.143 48.687 A 3.895 3.895 0 0 1 113.379 50.342 A 7.198 7.198 0 0 1 114.398 52.855 A 10.163 10.163 0 0 1 114.6 54.932 A 13.825 13.825 0 0 1 114.589 55.446 Q 114.572 55.906 114.526 56.47 A 183.804 183.804 0 0 0 114.453 57.404 A 222.015 222.015 0 0 0 114.38 58.399 Q 114.307 59.424 114.233 60.474 A 30.58 30.58 0 0 0 114.17 61.739 A 25.291 25.291 0 0 0 114.16 62.452 A 20.51 20.51 0 0 0 114.229 64.154 A 18.19 18.19 0 0 0 114.282 64.698 A 8.039 8.039 0 0 0 114.445 65.646 Q 114.563 66.142 114.74 66.564 A 4.959 4.959 0 0 0 114.746 66.578 A 3.23 3.23 0 0 0 115.207 67.356 A 2.752 2.752 0 0 0 115.723 67.847 A 2.281 2.281 0 0 0 116.507 68.209 Q 116.828 68.292 117.206 68.307 A 4.312 4.312 0 0 0 117.383 68.311 A 5.055 5.055 0 0 0 119.718 67.721 A 7.27 7.27 0 0 0 120.996 66.871 A 19.257 19.257 0 0 0 123.669 64.183 A 22.122 22.122 0 0 0 124.243 63.453 A 31.435 31.435 0 0 0 126.622 59.808 A 28.781 28.781 0 0 0 126.831 59.424 A 70.342 70.342 0 0 0 127.463 58.219 Q 127.76 57.637 128 57.136 A 26.428 26.428 0 0 0 128.292 56.505 A 43.356 43.356 0 0 1 127.958 54.92 A 51.666 51.666 0 0 1 127.832 54.248 A 60.463 60.463 0 0 1 127.042 47.827 A 76.637 76.637 0 0 1 126.855 42.383 Q 126.855 40.772 126.904 38.599 A 114.976 114.976 0 0 1 127.018 35.496 A 135.039 135.039 0 0 1 127.1 34.009 A 92.83 92.83 0 0 1 127.468 29.667 A 102.079 102.079 0 0 1 127.539 29.029 Q 127.832 26.465 128.32 24.024 L 110.791 24.024 A 2.178 2.178 0 0 1 110.112 23.922 A 1.845 1.845 0 0 1 109.473 23.56 A 1.524 1.524 0 0 1 108.942 22.485 A 2.128 2.128 0 0 1 108.936 22.315 A 1.833 1.833 0 0 1 109.021 21.743 A 1.486 1.486 0 0 1 109.473 21.07 A 1.898 1.898 0 0 1 110.588 20.614 A 2.478 2.478 0 0 1 110.791 20.606 L 129.15 20.606 A 24.26 24.26 0 0 1 129.828 18.523 A 20.044 20.044 0 0 1 130.298 17.383 Q 130.957 15.918 131.812 14.844 A 7.405 7.405 0 0 1 132.88 13.745 A 6.18 6.18 0 0 1 133.716 13.16 A 4.531 4.531 0 0 1 136.035 12.549 A 4.116 4.116 0 0 1 137.177 12.702 A 3.441 3.441 0 0 1 138.159 13.16 A 4.826 4.826 0 0 1 139.274 14.218 A 6.066 6.066 0 0 1 139.697 14.844 A 8.347 8.347 0 0 1 140.311 16.136 A 11.161 11.161 0 0 1 140.698 17.383 A 22.04 22.04 0 0 1 141.056 19.124 A 27.942 27.942 0 0 1 141.26 20.606 L 166.211 20.606 A 2.178 2.178 0 0 1 166.89 20.708 A 1.845 1.845 0 0 1 167.529 21.07 A 1.524 1.524 0 0 1 168.06 22.145 A 2.128 2.128 0 0 1 168.066 22.315 A 1.833 1.833 0 0 1 167.981 22.887 A 1.486 1.486 0 0 1 167.529 23.56 A 1.898 1.898 0 0 1 166.414 24.016 A 2.478 2.478 0 0 1 166.211 24.024 L 141.455 24.024 L 141.455 24.561 A 45.681 45.681 0 0 1 141.283 28.437 A 55.671 55.671 0 0 1 141.016 30.909 Q 140.576 34.278 139.819 37.622 Q 139.063 40.967 138.11 44.141 A 105.746 105.746 0 0 1 137.146 47.193 A 85.07 85.07 0 0 1 136.157 50 A 62.505 62.505 0 0 1 135.286 52.215 Q 134.729 53.551 134.18 54.664 A 29.363 29.363 0 0 1 133.603 55.776 Q 133.055 56.775 132.577 57.417 A 7.344 7.344 0 0 1 132.422 57.618 A 30.44 30.44 0 0 0 133.46 60.682 A 26.381 26.381 0 0 0 133.936 61.792 A 19.431 19.431 0 0 0 134.993 63.807 A 15.346 15.346 0 0 0 135.913 65.162 Q 137.012 66.602 138.281 67.432 Q 139.551 68.262 141.016 68.262 Q 142.725 68.262 144.409 66.822 A 19.09 19.09 0 0 0 146.799 64.359 A 22.314 22.314 0 0 0 147.534 63.404 A 35.931 35.931 0 0 0 149.935 59.653 A 32.982 32.982 0 0 0 150.073 59.4 A 58.892 58.892 0 0 0 150.584 58.437 Q 151.128 57.389 151.47 56.607 A 15.612 15.612 0 0 0 151.66 56.153 Q 152.148 54.981 153.369 54.981 A 1.906 1.906 0 0 1 154.024 55.089 A 1.655 1.655 0 0 1 154.712 55.567 A 2.213 2.213 0 0 1 155.058 56.088 A 1.752 1.752 0 0 1 155.225 56.836 A 1.686 1.686 0 0 1 155.12 57.413 A 1.983 1.983 0 0 1 155.078 57.52 Q 154.936 57.851 154.404 59.009 A 354.825 354.825 0 0 1 154.37 59.082 A 29.976 29.976 0 0 1 153.901 60.053 Q 153.47 60.907 152.905 61.914 Q 152.002 63.526 150.806 65.308 Q 149.609 67.09 148.12 68.555 A 15.709 15.709 0 0 1 145.24 70.809 A 14.596 14.596 0 0 1 144.922 70.997 A 7.173 7.173 0 0 1 141.309 71.973 A 9.311 9.311 0 0 1 135.254 69.776 Q 132.687 67.676 130.857 63.971 A 25.393 25.393 0 0 1 130.688 63.623 A 31.335 31.335 0 0 1 129.812 61.572 A 49.484 49.484 0 0 1 129.565 61.988 A 46.249 46.249 0 0 1 128.394 63.835 A 59.404 59.404 0 0 1 127.344 65.357 A 22.481 22.481 0 0 1 124.536 68.604 Q 122.998 70.069 121.216 71.045 A 7.666 7.666 0 0 1 117.48 72.022 A 9.233 9.233 0 0 1 116.008 71.912 Q 115.22 71.784 114.574 71.509 A 4.755 4.755 0 0 1 113.916 71.167 A 6.178 6.178 0 0 1 111.768 68.921 A 9.084 9.084 0 0 1 110.773 66.158 A 10.359 10.359 0 0 1 110.718 65.845 Q 110.449 64.161 110.449 62.452 A 17.57 17.57 0 0 1 110.465 61.722 Q 110.481 61.339 110.513 60.914 A 29.429 29.429 0 0 1 110.522 60.791 A 47.176 47.176 0 0 1 110.646 59.47 A 55.079 55.079 0 0 1 110.718 58.838 A 43.66 43.66 0 0 0 110.913 56.788 Q 110.986 55.762 110.986 54.834 A 7.859 7.859 0 0 0 110.958 54.136 Q 110.868 53.136 110.498 52.71 Q 110.106 52.26 109.777 52.171 A 0.604 0.604 0 0 0 109.619 52.149 A 1.68 1.68 0 0 0 109.016 52.271 Q 108.525 52.46 107.962 52.942 A 6.58 6.58 0 0 0 107.837 53.052 A 12.724 12.724 0 0 0 106.975 53.914 Q 106.561 54.367 106.131 54.909 A 24.016 24.016 0 0 0 105.737 55.42 A 42.932 42.932 0 0 0 104.486 57.184 A 54.992 54.992 0 0 0 103.491 58.716 A 78.485 78.485 0 0 0 101.343 62.354 A 173.607 173.607 0 0 0 100.378 64.118 A 146.644 146.644 0 0 0 99.487 65.796 Q 98.633 67.432 98.145 68.506 Q 97.306 70.266 96.468 71.037 A 3.084 3.084 0 0 1 96.191 71.265 A 4.01 4.01 0 0 1 95.335 71.746 A 3.049 3.049 0 0 1 94.189 71.973 A 3.803 3.803 0 0 1 93.188 71.848 A 2.802 2.802 0 0 1 91.919 71.119 A 2.784 2.784 0 0 1 91.205 69.854 Q 91.064 69.336 91.064 68.702 A 4.221 4.221 0 0 1 91.069 68.521 Q 91.086 68.141 91.162 67.359 A 234.248 234.248 0 0 1 91.242 66.553 Q 91.278 66.195 91.319 65.798 A 446.074 446.074 0 0 1 91.406 64.966 Q 91.553 63.575 91.699 61.963 A 2315.694 2315.694 0 0 1 91.992 58.765 A 160.53 160.53 0 0 0 92.126 57.233 A 128.07 128.07 0 0 0 92.236 55.811 Q 92.334 54.444 92.334 53.516 A 27.686 27.686 0 0 0 92.27 51.597 A 24.573 24.573 0 0 0 92.236 51.172 A 7.299 7.299 0 0 0 92.186 50.738 Q 92.077 49.998 91.846 49.805 A 0.745 0.745 0 0 0 91.625 49.939 Q 91.173 50.307 90.312 51.592 A 28.325 28.325 0 0 0 90.283 51.636 A 14.065 14.065 0 0 0 89.682 52.639 Q 88.721 54.383 87.402 57.569 A 1.821 1.821 0 0 1 87.401 57.571 A 2.61 2.61 0 0 1 87.383 57.618 A 3.231 3.231 0 0 1 87.354 57.691 A 16.093 16.093 0 0 1 87.158 58.136 A 13.009 13.009 0 0 1 86.963 58.545 A 20.007 20.007 0 0 1 85.034 61.353 Q 83.936 62.696 82.446 63.697 A 12.64 12.64 0 0 1 79.784 65.049 A 14.499 14.499 0 0 1 79.102 65.284 Q 77.246 65.87 74.951 65.821 Q 73.73 65.821 72.803 65.625 A 14.324 14.324 0 0 1 71.045 68.335 A 11.573 11.573 0 0 1 68.677 70.508 A 11.328 11.328 0 0 1 65.982 71.869 A 12.788 12.788 0 0 1 65.674 71.973 Q 64.014 72.51 62.061 72.51 A 11.362 11.362 0 0 1 59.353 72.197 A 9.794 9.794 0 0 1 57.861 71.705 A 10.151 10.151 0 0 1 54.541 69.458 A 9.88 9.88 0 0 1 52.522 66.428 A 11.474 11.474 0 0 1 52.344 65.992 A 11.716 11.716 0 0 1 51.836 64.272 A 32.346 32.346 0 0 1 49.756 66.944 A 19.622 19.622 0 0 1 45.483 70.655 A 9.463 9.463 0 0 1 40.283 72.168 Q 38.525 72.168 36.963 71.509 A 7.729 7.729 0 0 1 34.253 69.605 A 8.586 8.586 0 0 1 32.947 67.718 A 10.831 10.831 0 0 1 32.422 66.529 Q 31.738 64.698 31.738 62.403 A 24.476 24.476 0 0 1 32.227 57.544 A 24.759 24.759 0 0 0 32.657 54.467 A 20.862 20.862 0 0 0 32.715 52.93 Q 32.715 52.339 32.546 51.936 A 1.401 1.401 0 0 0 32.3 51.539 A 1 1 0 0 0 31.965 51.304 Q 31.466 51.075 30.474 51.075 A 5.419 5.419 0 0 0 30.469 51.075 L 28.98 51.075 A 29.726 29.726 0 0 0 28.143 51.087 A 36.801 36.801 0 0 0 27.246 51.123 Q 27.051 52.442 26.758 53.589 A 48.681 48.681 0 0 1 26.506 54.537 Q 26.387 54.967 26.272 55.345 A 26.573 26.573 0 0 1 26.196 55.591 A 55.181 55.181 0 0 1 26.067 55.999 Q 25.879 56.58 25.732 56.983 A 18.82 18.82 0 0 1 25.686 57.109 Q 25.531 57.526 25.488 57.569 A 2.059 2.059 0 0 1 25.437 57.683 A 33.907 33.907 0 0 1 24.006 60.47 A 42.632 42.632 0 0 1 22.754 62.525 A 32.129 32.129 0 0 1 20.137 66.003 A 38.186 38.186 0 0 1 18.726 67.554 Q 16.357 70.02 13.184 72.315 A 40.571 40.571 0 0 1 8.883 75.015 A 50.44 50.44 0 0 1 5.908 76.514 A 31.877 31.877 0 0 1 10.498 82.593 A 41.555 41.555 0 0 1 13.745 89.551 Q 15.039 93.164 15.698 96.851 A 42.16 42.16 0 0 1 16.293 101.77 A 36.038 36.038 0 0 1 16.357 103.907 A 29.949 29.949 0 0 1 16.092 107.962 A 25.627 25.627 0 0 1 15.796 109.693 Q 15.234 112.403 14.136 114.405 A 10.846 10.846 0 0 1 12.926 116.187 A 8.423 8.423 0 0 1 11.475 117.554 A 5.867 5.867 0 0 1 7.91 118.702 A 6.31 6.31 0 0 1 5.898 118.396 A 5.121 5.121 0 0 1 3.369 116.529 A 10.701 10.701 0 0 1 2.201 114.489 Q 1.738 113.446 1.389 112.18 A 23.141 23.141 0 0 1 1.001 110.523 Q 0.244 106.69 0.122 101.49 A 428.832 428.832 0 0 1 0.031 96.064 A 544.903 544.903 0 0 1 0 90.186 L 0 83.13 A 1479.23 1479.23 0 0 1 0.006 78.955 A 1813.123 1813.123 0 0 1 0.024 74.488 A 20341.803 20341.803 0 0 0 0.061 67.319 A 23284.621 23284.621 0 0 0 0.073 64.82 Q 0.098 59.766 0.146 54.688 A 29829.906 29829.906 0 0 1 0.244 44.703 A 824.929 824.929 0 0 1 0.305 39.924 A 699.364 699.364 0 0 1 0.391 35.401 A 372.407 372.407 0 0 1 0.592 27.924 Q 0.724 24.414 0.92 21.294 A 217.344 217.344 0 0 1 0.977 20.411 A 108.831 108.831 0 0 1 1.382 15.755 Q 1.782 12.116 2.393 9.278 Q 3.369 4.737 5.054 2.369 Q 6.738 0 9.326 0 A 6.086 6.086 0 0 1 11.054 0.236 A 4.964 4.964 0 0 1 12.793 1.148 A 7.674 7.674 0 0 1 14.42 2.99 A 9.872 9.872 0 0 1 15.088 4.224 A 14.517 14.517 0 0 1 15.845 6.318 Q 16.142 7.376 16.333 8.58 A 23.33 23.33 0 0 1 16.357 8.741 A 35.494 35.494 0 0 1 16.734 13.107 A 40.088 40.088 0 0 1 16.748 14.161 Q 16.748 20.118 15.723 25.684 A 78.246 78.246 0 0 1 12.939 36.475 Q 11.182 41.7 8.813 46.68 A 174.517 174.517 0 0 1 3.76 56.495 L 3.76 60.816 L 3.76 65.455 A 400.139 400.139 0 0 1 3.746 68.824 A 350.363 350.363 0 0 1 3.735 69.898 Q 3.711 72.022 3.711 73.584 Z M 179.688 65.821 A 7.594 7.594 0 0 0 182.324 68.091 Q 183.814 68.881 185.929 68.941 A 12.41 12.41 0 0 0 186.279 68.946 A 8.592 8.592 0 0 0 189.621 68.3 A 8.253 8.253 0 0 0 190.625 67.798 A 14.061 14.061 0 0 0 193.678 65.358 A 16.247 16.247 0 0 0 194.189 64.795 A 23.85 23.85 0 0 0 196.829 61.071 A 26.568 26.568 0 0 0 197.07 60.645 A 60.317 60.317 0 0 0 199.245 56.321 A 2.484 2.484 0 0 1 199.316 56.104 A 62.985 62.985 0 0 1 200.597 53.245 Q 202.086 50.147 203.442 48.414 A 10.22 10.22 0 0 1 204.435 47.306 Q 205.862 45.948 207.275 45.948 A 3.74 3.74 0 0 1 208.193 46.055 A 2.882 2.882 0 0 1 209.18 46.509 A 3.938 3.938 0 0 1 210.32 47.8 A 4.671 4.671 0 0 1 210.425 47.998 A 7.701 7.701 0 0 1 210.983 49.5 A 9.025 9.025 0 0 1 211.108 50.049 Q 211.328 51.172 211.328 52.344 Q 211.328 53.207 211.21 55.012 A 118.802 118.802 0 0 1 211.206 55.079 A 138.904 138.904 0 0 1 211.066 57.001 A 170.62 170.62 0 0 1 210.889 59.058 A 404.549 404.549 0 0 0 210.522 63.282 A 251.754 251.754 0 0 1 210.439 64.289 Q 210.317 65.712 210.209 66.763 A 85.426 85.426 0 0 1 210.205 66.797 A 92.616 92.616 0 0 1 211.047 65.107 A 124.703 124.703 0 0 1 212.012 63.257 A 96.816 96.816 0 0 1 214.209 59.351 Q 215.381 57.373 216.675 55.42 A 49.41 49.41 0 0 1 219.385 51.709 A 13.101 13.101 0 0 1 220.45 50.562 Q 221.035 50.007 221.623 49.613 A 6.764 6.764 0 0 1 222.241 49.244 A 7.456 7.456 0 0 1 223.383 48.754 Q 224.197 48.487 224.951 48.487 A 5.477 5.477 0 0 1 226.476 48.687 A 3.895 3.895 0 0 1 228.711 50.342 A 7.198 7.198 0 0 1 229.73 52.855 A 10.163 10.163 0 0 1 229.932 54.932 A 13.825 13.825 0 0 1 229.921 55.446 Q 229.904 55.906 229.858 56.47 A 183.804 183.804 0 0 0 229.785 57.404 A 222.015 222.015 0 0 0 229.712 58.399 Q 229.639 59.424 229.565 60.474 A 30.58 30.58 0 0 0 229.502 61.739 A 25.291 25.291 0 0 0 229.492 62.452 A 20.51 20.51 0 0 0 229.561 64.154 A 18.19 18.19 0 0 0 229.614 64.698 A 8.039 8.039 0 0 0 229.777 65.646 Q 229.895 66.142 230.072 66.564 A 4.959 4.959 0 0 0 230.078 66.578 A 3.23 3.23 0 0 0 230.539 67.356 A 2.752 2.752 0 0 0 231.055 67.847 A 2.281 2.281 0 0 0 231.839 68.209 Q 232.16 68.292 232.538 68.307 A 4.312 4.312 0 0 0 232.715 68.311 A 5.055 5.055 0 0 0 235.05 67.721 A 7.27 7.27 0 0 0 236.328 66.871 A 19.257 19.257 0 0 0 239.001 64.183 A 22.122 22.122 0 0 0 239.575 63.453 A 31.435 31.435 0 0 0 241.954 59.808 A 28.781 28.781 0 0 0 242.163 59.424 A 70.342 70.342 0 0 0 242.795 58.219 Q 243.387 57.059 243.749 56.221 A 18.709 18.709 0 0 0 243.799 56.104 A 1.967 1.967 0 0 1 244.175 55.543 A 1.794 1.794 0 0 1 244.507 55.274 A 1.84 1.84 0 0 1 244.83 55.109 A 17.485 17.485 0 0 1 245.873 53.367 A 14.927 14.927 0 0 1 247.168 51.734 Q 249.023 49.707 251.294 48.584 Q 253.564 47.461 255.811 47.461 A 1.777 1.777 0 0 1 257.08 47.974 Q 257.617 48.487 257.617 49.268 Q 257.617 49.952 257.178 50.489 A 1.74 1.74 0 0 1 256.074 51.113 A 2.252 2.252 0 0 1 256.006 51.123 A 10.034 10.034 0 0 0 254.394 51.483 A 13.706 13.706 0 0 0 252.881 52.051 Q 251.221 52.784 249.829 54.175 Q 248.438 55.567 247.534 57.715 A 10.977 10.977 0 0 0 246.857 60.071 Q 246.631 61.353 246.631 62.842 A 9.688 9.688 0 0 0 246.729 64.263 Q 246.843 65.032 247.091 65.658 A 4.435 4.435 0 0 0 247.632 66.651 A 3.254 3.254 0 0 0 250.012 67.99 A 4.807 4.807 0 0 0 250.537 68.018 A 3.347 3.347 0 0 0 251.395 67.901 Q 251.761 67.804 252.146 67.627 A 5.599 5.599 0 0 0 252.197 67.603 A 3.59 3.59 0 0 0 252.816 67.222 Q 253.42 66.768 254.077 65.967 Q 255.056 64.774 256.222 62.599 A 41.335 41.335 0 0 0 256.274 62.5 Q 257.078 60.991 258.003 58.843 A 93.728 93.728 0 0 0 258.936 56.592 A 116.877 116.877 0 0 1 258.237 52.58 Q 257.806 49.839 257.422 46.68 A 89.606 89.606 0 0 1 256.909 40.735 A 121.604 121.604 0 0 1 256.738 34.131 A 103.599 103.599 0 0 1 256.848 29.439 A 117.921 117.921 0 0 1 256.934 27.808 A 81.528 81.528 0 0 1 257.568 21.363 A 55.015 55.015 0 0 1 258.392 16.817 A 48.578 48.578 0 0 1 258.74 15.381 Q 259.473 12.549 260.522 10.401 A 13.235 13.235 0 0 1 261.502 8.708 Q 262.186 7.712 262.988 7.007 A 4.745 4.745 0 0 1 266.211 5.762 Q 267.822 5.762 268.945 6.641 Q 270.068 7.52 270.776 9.082 Q 271.414 10.489 271.754 12.411 A 20.713 20.713 0 0 1 271.826 12.842 A 28.209 28.209 0 0 1 272.103 15.453 A 36.435 36.435 0 0 1 272.168 17.676 A 66.558 66.558 0 0 1 271.191 29.004 A 111.763 111.763 0 0 1 269.127 38.543 A 101.126 101.126 0 0 1 268.774 39.844 A 136.327 136.327 0 0 1 266.931 45.935 A 110.758 110.758 0 0 1 265.723 49.414 A 258.659 258.659 0 0 1 264.555 52.539 Q 263.617 54.999 262.793 56.983 A 45.721 45.721 0 0 0 263.766 60.816 Q 265.598 66.822 268.352 67.984 A 3.502 3.502 0 0 0 269.727 68.262 A 4.92 4.92 0 0 0 272.126 67.622 A 6.732 6.732 0 0 0 273.096 66.968 A 16.04 16.04 0 0 0 275.185 64.939 A 19.453 19.453 0 0 0 276.099 63.794 A 28.473 28.473 0 0 0 278.564 59.815 A 91.815 91.815 0 0 0 279.315 58.316 Q 279.678 57.574 279.98 56.915 A 46.486 46.486 0 0 0 280.322 56.153 Q 280.811 54.981 282.031 54.981 Q 282.813 54.981 283.35 55.567 A 2.235 2.235 0 0 1 283.695 56.054 A 1.691 1.691 0 0 1 283.887 56.836 A 1.764 1.764 0 0 1 283.855 57.181 A 1.338 1.338 0 0 1 283.74 57.52 A 26.094 26.094 0 0 1 283.55 57.97 Q 283.332 58.47 283.031 59.12 A 87.757 87.757 0 0 1 282.739 59.742 A 30.243 30.243 0 0 1 282.007 61.182 A 39.844 39.844 0 0 1 281.128 62.72 A 50.537 50.537 0 0 1 279.576 65.142 A 58.12 58.12 0 0 1 279.004 65.967 Q 277.832 67.627 276.416 68.946 A 14.774 14.774 0 0 1 274.002 70.782 A 13.433 13.433 0 0 1 273.413 71.119 A 6.956 6.956 0 0 1 270.068 71.973 Q 266.797 71.973 264.453 69.703 A 10.849 10.849 0 0 1 262.917 67.793 Q 261.522 65.636 260.4 62.207 A 40.536 40.536 0 0 1 258.949 65.021 Q 257.447 67.655 255.926 69.18 A 11.126 11.126 0 0 1 255.664 69.434 Q 253.271 71.68 250.488 71.68 Q 249.023 71.68 247.656 71.216 A 5.88 5.88 0 0 1 245.264 69.678 A 7.093 7.093 0 0 1 244.234 68.277 A 9.576 9.576 0 0 1 243.604 66.919 A 9.079 9.079 0 0 1 243.17 65.3 A 13.274 13.274 0 0 1 243.089 64.77 A 59.404 59.404 0 0 1 242.676 65.357 A 22.481 22.481 0 0 1 239.868 68.604 Q 238.33 70.069 236.548 71.045 A 7.666 7.666 0 0 1 232.813 72.022 A 9.233 9.233 0 0 1 231.34 71.912 Q 230.552 71.784 229.906 71.509 A 4.755 4.755 0 0 1 229.248 71.167 A 6.178 6.178 0 0 1 227.1 68.921 A 9.084 9.084 0 0 1 226.105 66.158 A 10.359 10.359 0 0 1 226.05 65.845 Q 225.781 64.161 225.781 62.452 A 17.57 17.57 0 0 1 225.797 61.722 Q 225.813 61.339 225.845 60.914 A 29.429 29.429 0 0 1 225.855 60.791 A 47.176 47.176 0 0 1 225.978 59.47 A 55.079 55.079 0 0 1 226.05 58.838 A 43.66 43.66 0 0 0 226.245 56.788 Q 226.318 55.762 226.318 54.834 A 7.859 7.859 0 0 0 226.29 54.136 Q 226.2 53.136 225.83 52.71 Q 225.438 52.26 225.109 52.171 A 0.604 0.604 0 0 0 224.951 52.149 A 1.68 1.68 0 0 0 224.348 52.271 Q 223.857 52.46 223.294 52.942 A 6.58 6.58 0 0 0 223.169 53.052 A 12.724 12.724 0 0 0 222.307 53.914 Q 221.893 54.367 221.463 54.909 A 24.016 24.016 0 0 0 221.069 55.42 A 42.932 42.932 0 0 0 219.818 57.184 A 54.992 54.992 0 0 0 218.823 58.716 A 78.485 78.485 0 0 0 216.675 62.354 A 173.607 173.607 0 0 0 215.71 64.118 A 146.644 146.644 0 0 0 214.819 65.796 Q 213.965 67.432 213.477 68.506 Q 212.639 70.266 211.8 71.037 A 3.084 3.084 0 0 1 211.523 71.265 A 4.01 4.01 0 0 1 210.667 71.746 A 3.049 3.049 0 0 1 209.521 71.973 A 3.803 3.803 0 0 1 208.52 71.848 A 2.802 2.802 0 0 1 207.251 71.119 A 2.784 2.784 0 0 1 206.538 69.854 Q 206.396 69.336 206.396 68.702 A 4.221 4.221 0 0 1 206.401 68.521 Q 206.418 68.141 206.494 67.359 A 234.248 234.248 0 0 1 206.574 66.553 Q 206.61 66.195 206.652 65.798 A 446.074 446.074 0 0 1 206.738 64.966 Q 206.885 63.575 207.031 61.963 A 2315.694 2315.694 0 0 1 207.324 58.765 A 160.53 160.53 0 0 0 207.459 57.233 A 128.07 128.07 0 0 0 207.568 55.811 Q 207.666 54.444 207.666 53.516 A 27.686 27.686 0 0 0 207.602 51.597 A 24.573 24.573 0 0 0 207.568 51.172 A 7.299 7.299 0 0 0 207.518 50.738 Q 207.409 49.998 207.178 49.805 A 0.745 0.745 0 0 0 206.957 49.939 Q 206.505 50.307 205.644 51.592 A 28.325 28.325 0 0 0 205.615 51.636 A 14.065 14.065 0 0 0 205.014 52.639 Q 204.053 54.383 202.734 57.569 A 1.821 1.821 0 0 1 202.581 57.848 A 52.626 52.626 0 0 1 200.297 62.287 Q 197.948 66.332 195.337 68.799 A 14.632 14.632 0 0 1 191.375 71.519 A 12.603 12.603 0 0 1 186.328 72.657 Q 183.105 72.657 180.762 71.412 A 11.918 11.918 0 0 1 177.606 69.019 A 11.164 11.164 0 0 1 176.904 68.189 A 13.583 13.583 0 0 1 174.658 63.721 A 17.575 17.575 0 0 1 173.926 58.741 Q 173.926 56.25 174.536 54.151 A 12.521 12.521 0 0 1 175.45 51.847 A 10.485 10.485 0 0 1 176.294 50.489 A 8.683 8.683 0 0 1 178.262 48.529 A 8.071 8.071 0 0 1 179.028 48.047 Q 180.615 47.168 182.52 47.168 A 5.638 5.638 0 0 1 184.638 47.59 A 6.452 6.452 0 0 1 184.741 47.632 A 6.375 6.375 0 0 1 186.719 48.951 A 6.376 6.376 0 0 1 187.958 50.652 A 7.471 7.471 0 0 1 188.135 51.026 A 6.262 6.262 0 0 1 188.596 52.685 A 8.079 8.079 0 0 1 188.672 53.809 A 10.394 10.394 0 0 1 188.158 57.098 A 9.795 9.795 0 0 1 187.988 57.569 Q 187.305 59.327 186.108 60.84 A 15.64 15.64 0 0 1 183.858 63.139 A 17.839 17.839 0 0 1 183.252 63.623 A 20.971 20.971 0 0 1 179.688 65.821 Z M 3.857 48.975 Q 5.859 45.215 7.544 41.04 A 78.785 78.785 0 0 0 10.449 32.422 A 76.17 76.17 0 0 0 12.354 23.34 A 63.883 63.883 0 0 0 13.037 14.014 A 43.314 43.314 0 0 0 12.982 11.78 A 32.039 32.039 0 0 0 12.817 9.766 Q 12.638 8.215 12.298 7.037 A 10.645 10.645 0 0 0 12.134 6.519 A 7.92 7.92 0 0 0 11.752 5.594 Q 11.524 5.134 11.255 4.772 A 4.045 4.045 0 0 0 10.962 4.419 A 2.57 2.57 0 0 0 10.354 3.931 A 2.052 2.052 0 0 0 9.326 3.663 Q 8.487 3.663 7.829 4.527 A 4.041 4.041 0 0 0 7.617 4.834 Q 6.885 6.006 6.348 7.959 A 30.579 30.579 0 0 0 5.882 9.919 Q 5.669 10.955 5.494 12.117 A 50.954 50.954 0 0 0 5.444 12.452 A 94.354 94.354 0 0 0 4.964 16.384 A 105.799 105.799 0 0 0 4.834 17.749 Q 4.59 20.508 4.443 23.267 A 252.203 252.203 0 0 0 4.315 25.94 A 206.563 206.563 0 0 0 4.224 28.443 A 314.199 314.199 0 0 0 4.169 30.45 Q 4.147 31.366 4.134 32.182 A 177.029 177.029 0 0 0 4.126 32.715 A 464.524 464.524 0 0 0 4.115 33.585 Q 4.106 34.422 4.103 35.013 A 98.036 98.036 0 0 0 4.102 35.498 Q 4.06 37.177 4.036 38.531 A 281.103 281.103 0 0 0 4.028 38.965 A 173.322 173.322 0 0 1 3.955 41.944 Q 3.906 43.409 3.882 45.069 Q 3.857 46.729 3.857 48.975 Z M 268.506 17.627 A 45.77 45.77 0 0 0 268.488 16.358 A 57.289 57.289 0 0 0 268.433 14.991 A 17.583 17.583 0 0 0 268.24 13.124 A 14.989 14.989 0 0 0 268.091 12.33 Q 267.877 11.34 267.556 10.612 A 5.617 5.617 0 0 0 267.383 10.254 Q 267.094 9.709 266.679 9.522 A 1.126 1.126 0 0 0 266.211 9.424 A 1.565 1.565 0 0 0 265.274 9.759 Q 264.732 10.158 264.227 11.032 A 8.885 8.885 0 0 0 263.94 11.573 A 17.655 17.655 0 0 0 263.195 13.362 Q 262.86 14.297 262.558 15.398 A 39.785 39.785 0 0 0 262.109 17.212 A 59.313 59.313 0 0 0 261.407 20.935 Q 261.101 22.882 260.872 25.053 A 96.236 96.236 0 0 0 260.864 25.122 Q 260.4 29.541 260.4 34.034 A 108.335 108.335 0 0 0 260.742 42.627 A 186.394 186.394 0 0 0 261.084 46.452 Q 261.29 48.504 261.523 50.293 A 159.473 159.473 0 0 0 264.209 42.554 A 101.165 101.165 0 0 0 266.431 34.424 Q 267.383 30.274 267.944 26.05 Q 268.506 21.827 268.506 17.627 Z M 3.705 82.563 A 699.152 699.152 0 0 0 3.711 79.59 A 28.194 28.194 0 0 1 7.568 84.961 A 41.345 41.345 0 0 1 10.376 91.138 Q 11.523 94.336 12.085 97.608 A 41.445 41.445 0 0 1 12.381 99.624 A 35.139 35.139 0 0 1 12.646 103.858 A 14.328 14.328 0 0 1 12.646 103.91 Q 12.644 104.7 12.554 105.804 A 48.977 48.977 0 0 1 12.451 106.91 Q 12.256 108.789 11.743 110.596 A 11.941 11.941 0 0 1 11.3 111.882 A 9.397 9.397 0 0 1 10.303 113.721 A 3.915 3.915 0 0 1 10.015 114.083 A 2.72 2.72 0 0 1 7.91 115.039 A 2.081 2.081 0 0 1 6.526 114.529 Q 6.177 114.233 5.886 113.766 A 5.58 5.58 0 0 1 5.444 112.867 A 14.882 14.882 0 0 1 4.96 111.4 Q 4.709 110.496 4.512 109.426 A 35.11 35.11 0 0 1 4.175 107.154 A 54.811 54.811 0 0 1 4.148 106.925 Q 3.954 105.199 3.844 103.263 A 90.321 90.321 0 0 1 3.711 99.17 A 817.695 817.695 0 0 1 3.662 90.186 A 461.201 461.201 0 0 1 3.668 87.873 A 614.409 614.409 0 0 1 3.687 85.328 A 562.711 562.711 0 0 0 3.705 82.563 Z M 137.793 24.024 L 132.031 24.024 Q 131.348 27.051 130.933 31.519 Q 130.647 34.591 130.558 38.574 A 170.518 170.518 0 0 0 130.518 42.383 A 114.982 114.982 0 0 0 130.53 44.094 Q 130.566 46.547 130.712 48.358 A 42.999 42.999 0 0 0 130.713 48.365 Q 130.908 50.782 131.299 52.735 A 61.238 61.238 0 0 0 133.266 47.837 A 71.464 71.464 0 0 0 133.96 45.777 A 87.593 87.593 0 0 0 136.011 38.233 A 80.34 80.34 0 0 0 137.3 30.991 A 73.991 73.991 0 0 0 137.329 30.762 A 61.781 61.781 0 0 0 137.677 27.247 A 46.99 46.99 0 0 0 137.793 24.024 Z M 178.223 62.647 A 11.906 11.906 0 0 0 180.981 61.036 A 11.813 11.813 0 0 0 182.703 59.39 A 10.63 10.63 0 0 0 183.105 58.887 Q 183.984 57.715 184.473 56.421 A 7.349 7.349 0 0 0 184.961 53.809 A 4.683 4.683 0 0 0 184.889 52.963 Q 184.803 52.495 184.614 52.128 A 2.264 2.264 0 0 0 184.229 51.587 A 2.582 2.582 0 0 0 183.528 51.063 A 2.226 2.226 0 0 0 182.52 50.83 A 3.956 3.956 0 0 0 181.369 50.991 A 3.29 3.29 0 0 0 180.273 51.563 A 5.337 5.337 0 0 0 179.032 52.976 A 6.453 6.453 0 0 0 178.76 53.467 A 9.388 9.388 0 0 0 178.081 55.291 A 11.22 11.22 0 0 0 177.905 56.08 A 15.558 15.558 0 0 0 177.637 58.936 A 10.156 10.156 0 0 0 177.714 60.161 A 12.195 12.195 0 0 0 177.808 60.791 A 20.101 20.101 0 0 0 178.105 62.201 A 17.746 17.746 0 0 0 178.223 62.647 Z M 66.602 53.516 A 7.898 7.898 0 0 0 66.707 54.776 A 9.613 9.613 0 0 0 66.846 55.469 A 8.938 8.938 0 0 0 67.509 57.308 A 9.989 9.989 0 0 0 67.603 57.496 Q 68.115 58.497 68.872 59.4 A 7.363 7.363 0 0 0 70.654 60.938 A 14.227 14.227 0 0 0 70.8 59.058 A 13.078 13.078 0 0 0 70.801 58.936 A 18.976 18.976 0 0 0 70.605 56.25 Q 70.41 54.883 70.044 53.736 Q 69.678 52.588 69.141 51.88 A 2.141 2.141 0 0 0 68.768 51.492 A 1.41 1.41 0 0 0 67.871 51.172 A 0.551 0.551 0 0 0 67.681 51.211 Q 67.508 51.274 67.288 51.445 A 3.536 3.536 0 0 0 67.09 51.612 A 1.075 1.075 0 0 0 66.838 51.975 Q 66.672 52.341 66.623 52.949 A 7.007 7.007 0 0 0 66.602 53.516 Z M 132.91 20.606 L 137.598 20.606 Q 137.36 18.614 136.916 17.451 A 6.173 6.173 0 0 0 136.89 17.383 Q 136.426 16.211 135.84 16.211 A 0.626 0.626 0 0 0 135.58 16.278 Q 135.226 16.443 134.705 17.013 A 8.741 8.741 0 0 0 134.57 17.164 A 4.604 4.604 0 0 0 134.103 17.821 Q 133.507 18.816 132.91 20.606 Z M 21.826 47.51 L 23.975 47.51 A 12.051 12.051 0 0 0 23.973 47.326 Q 23.969 47.028 23.95 46.607 A 11.98 11.98 0 0 0 23.853 45.508 A 7.282 7.282 0 0 0 23.781 45.074 Q 23.74 44.871 23.691 44.695 A 3.959 3.959 0 0 0 23.657 44.58 A 1.843 1.843 0 0 0 23.611 44.448 Q 23.508 44.19 23.389 44.19 Q 23.242 44.19 23.022 44.556 A 7.997 7.997 0 0 0 22.854 44.851 Q 22.756 45.032 22.653 45.24 A 14.62 14.62 0 0 0 22.559 45.435 A 9.355 9.355 0 0 0 22.22 46.245 A 10.627 10.627 0 0 0 22.119 46.534 A 21.591 21.591 0 0 0 22.028 46.814 Q 21.908 47.19 21.836 47.471 A 7.114 7.114 0 0 0 21.826 47.51 Z M 132.08 56.299 L 132.08 56.25 L 132.08 56.299 Z"/></g></svg>